<svg width="888" height="774" viewBox="0 0 888 774" fill="none" xmlns="http://www.w3.org/2000/svg">
<path d="M717.584 977.419C709.025 970.687 701.071 963.665 693.242 956.236C689.895 953.189 688.065 949.142 688.141 944.956C688.216 940.769 690.191 936.773 693.645 933.816C701.501 926.535 709.706 919.765 718.392 913.101C722.038 910.343 726.754 908.856 731.614 908.931C736.473 909.007 741.124 910.641 744.65 913.511C753.209 920.241 761.163 927.264 768.992 934.695C772.232 937.786 773.99 941.813 773.916 945.97C773.841 950.127 771.939 954.106 768.591 957.111C760.733 964.395 752.53 971.161 743.845 977.828C740.303 980.533 735.721 982.018 730.98 982C725.992 982.019 721.19 980.377 717.584 977.419ZM390.28 889.601C350.688 857.122 315.359 825.624 278.893 791.265C271.027 783.865 266.757 774.164 266.958 764.149C267.16 754.134 271.818 744.565 279.977 737.403C317.904 703.702 354.696 673.633 394.833 642.604C403.613 636 414.952 632.45 426.625 632.652C438.299 632.854 449.462 636.793 457.926 643.695C497.517 676.173 532.846 707.671 569.312 742.031C577.071 749.475 581.27 759.158 581.068 769.144C580.867 779.13 576.28 788.683 568.226 795.892C530.301 829.595 493.51 859.661 453.373 890.691C444.831 897.138 433.836 900.68 422.461 900.651C410.468 900.694 398.926 896.731 390.278 889.601H390.28ZM-126.475 793.226C-178.838 732.031 -224.743 673.422 -271.52 609.987C-281.617 596.322 -285.24 579.861 -281.646 563.977C-278.051 548.093 -267.512 533.992 -252.189 524.564C-180.842 480.083 -112.489 441.108 -38.5002 401.409C-22.3744 393.017 -3.17557 390.1 15.3275 393.231C33.8306 396.363 50.3016 405.316 61.5072 418.334C113.87 479.529 159.777 538.139 206.554 601.571C226.993 629.874 218.747 667.561 187.221 686.994C115.874 731.477 47.5211 770.449 -26.4658 810.147C-38.2437 816.32 -51.7827 819.574 -65.5832 819.55C-77.4331 819.596 -89.1277 817.235 -99.711 812.661C-110.294 808.086 -119.466 801.427 -126.477 793.229L-126.475 793.226ZM610.106 595.141C595.677 577.97 582.539 561.53 569.309 543.77C564.306 537.144 562.492 529.112 564.25 521.362C566.007 513.612 571.198 506.749 578.731 502.216C598.801 489.949 618.017 478.783 638.782 467.541C646.575 463.293 655.971 461.772 665.032 463.292C674.093 464.812 682.13 469.256 687.487 475.71C701.918 492.88 715.054 509.32 728.284 527.082C733.287 533.708 735.101 541.74 733.343 549.49C731.586 557.24 726.395 564.103 718.862 568.636C698.794 580.902 679.574 592.067 658.811 603.31C653.096 606.485 646.429 608.167 639.621 608.154C633.849 608.162 628.158 606.985 623.023 604.722C617.889 602.459 613.459 599.175 610.104 595.144L610.106 595.141ZM333.127 511.538C300.93 497.647 270.877 483.374 239.31 467.456C231.236 463.435 225.277 456.899 222.67 449.205C220.064 441.512 221.01 433.253 225.313 426.143C241.5 398.698 258.121 373.082 276.666 346.179C281.506 339.343 289.175 334.326 298.14 332.134C307.104 329.942 316.703 330.735 325.015 334.356C357.213 348.247 387.267 362.521 418.834 378.439C426.832 382.522 432.725 389.058 435.322 396.727C437.92 404.395 437.029 412.624 432.83 419.75C416.642 447.197 400.024 472.811 381.477 499.713C378.194 504.373 373.563 508.226 368.034 510.898C362.504 513.569 356.263 514.968 349.918 514.96C344.087 514.955 338.337 513.785 333.126 511.541L333.127 511.538ZM831.665 376.398C823.106 369.668 815.154 362.644 807.325 355.216C804.085 352.125 802.326 348.097 802.401 343.94C802.475 339.783 804.377 335.803 807.726 332.799C815.584 325.515 823.787 318.748 832.472 312.082C836.119 309.323 840.836 307.836 845.696 307.912C850.556 307.988 855.206 309.622 858.733 312.492C867.292 319.221 875.246 326.244 883.075 333.672C886.314 336.764 888.073 340.792 887.998 344.949C887.923 349.106 886.02 353.085 882.672 356.09C874.814 363.374 866.611 370.141 857.926 376.808C854.384 379.513 849.802 380.998 845.061 380.979C840.072 380.999 835.269 379.359 831.661 376.402L831.665 376.398ZM112.104 303.145C42.3449 282.776 -20.1565 261.91 -87.929 236.802C-97.6473 233.232 -105.43 226.637 -109.714 218.343C-113.997 210.049 -114.463 200.671 -111.017 192.095C-87.3653 132.6 -63.1123 79.3057 -33.9045 21.5212C-29.609 13.2472 -21.8631 6.65091 -12.1887 3.02841C-2.51444 -0.594087 8.38875 -0.980837 18.3784 1.94413C88.138 22.3132 150.641 43.1787 218.414 68.2868C228.083 71.9079 235.819 78.5088 240.093 86.786C244.367 95.0632 244.869 104.415 241.5 112.994C217.846 172.489 193.597 225.785 164.391 283.57C161.062 289.973 155.646 295.413 148.794 299.233C141.943 303.054 133.95 305.092 125.78 305.101C121.126 305.098 116.505 304.439 112.101 303.148L112.104 303.145ZM461.738 199.136C453.308 192.004 445.353 184.98 437.048 177.443C430.487 171.551 426.902 163.675 427.07 155.527C427.239 147.379 431.148 139.617 437.948 133.929C446.28 126.753 454.482 119.983 463.286 112.916C470.293 107.42 479.495 104.448 488.986 104.615C498.477 104.782 507.529 108.077 514.267 113.815C522.697 120.949 530.651 127.973 538.957 135.509C545.41 141.447 548.923 149.304 548.755 157.422C548.587 165.54 544.751 173.285 538.056 179.023C529.726 186.2 521.523 192.97 512.72 200.037C506.005 205.408 497.154 208.378 487.974 208.339C478.159 208.352 468.733 205.046 461.738 199.136Z" fill="url(#paint0_linear_6_12)"/>
<defs>
<linearGradient id="paint0_linear_6_12" x1="521.477" y1="135.516" x2="147.297" y2="741.773" gradientUnits="userSpaceOnUse">
<stop stop-color="white" stop-opacity="0.102"/>
<stop offset="1" stop-color="white" stop-opacity="0.251"/>
</linearGradient>
</defs>
</svg>
