<?xml version="1.0" encoding="UTF-8"?><svg id="Ebene_2" xmlns="http://www.w3.org/2000/svg" viewBox="0 0 1000 1000"><defs><style>.cls-1{fill:#00a556;}.cls-1,.cls-2{stroke-width:0px;}.cls-2{fill:#fff;}</style></defs><g id="Capa_1"><path class="cls-1" d="M1000,500.25c0-5.87-2.25-11.75-6.54-15.82l-43.34-43.4,30.76-53.06c6.11-10.61,2.5-24.62-8.33-30.73l-53.06-30.76,16.08-58.95c3.17-12.2-4.05-24.62-16.02-27.8l-59.17-15.86.05-61.22c0-12.42-10.15-22.6-22.57-22.61l-61.22-.04-15.77-59.19c-1.58-5.65-5.41-10.62-10.61-13.56-5.19-3.17-11.29-3.85-16.94-2.27l-59.19,15.77-30.68-53.1c-2.93-5.2-7.9-9.04-13.55-10.63-5.87-1.59-11.97-.69-17.17,2.25l-53.11,30.68-43.34-43.4C512.22,2.49,506.35,0,500.48,0c-6.1,0-11.75,2.48-16.04,6.54l-43.4,43.34-52.83-30.76c-5.19-2.94-11.52-3.85-17.17-2.27-5.87,1.58-10.85,5.41-13.79,10.61l-30.53,53.06-59.17-15.86c-11.97-3.4-24.4,3.82-27.8,15.79l-15.86,59.17-61.22-.04c-12.42,0-22.6,10.15-22.61,22.57l-.04,61.22-59.19,15.77c-5.65,1.58-10.62,5.42-13.56,10.61-3.17,5.19-3.85,11.29-2.27,17.17l15.77,58.97-53.1,30.68c-5.2,2.93-9.04,7.9-10.4,13.77-1.58,5.65-.91,11.75,2.25,16.94l30.46,53.11-43.18,43.34C2.49,487.78,0,493.65,0,499.52c0,6.1,2.48,11.75,6.77,16.04l43.11,43.4-30.53,52.83c-3.17,5.19-3.85,11.52-2.27,17.17,1.35,5.87,5.19,10.85,10.38,13.79l53.06,30.76-15.86,58.95c-1.58,5.87-.91,11.97,2.25,17.17,2.93,5.2,7.9,9.04,13.55,10.63l59.17,15.86-.04,61.22c0,12.42,10.15,22.6,22.57,22.61l61.22.05,15.77,59.19c3.38,11.97,15.8,19.21,27.77,15.83l59.19-15.77,30.46,53.1c6.32,10.85,20.09,14.47,30.94,8.15l52.88-30.46,43.34,43.4c4.29,4.07,9.93,6.56,16.03,6.56,5.87,0,11.75-2.48,15.82-6.54l43.4-43.34,53.06,30.53c10.61,6.33,24.62,2.73,30.73-8.11l30.76-53.06,59.17,15.86c5.65,1.58,11.75.91,16.94-2.25,5.2-2.93,9.04-7.9,10.63-13.55l15.86-59.17,61.22.05c12.42,0,22.6-10.15,22.61-22.57l.05-61.22,59.19-15.77c11.97-3.38,19.21-15.57,16.06-27.77l-16-58.97,53.11-30.68c10.85-6.32,14.47-20.09,8.38-30.94l-30.68-52.88,43.4-43.34c4.29-4.29,6.56-9.93,6.56-16.03Z"/><path class="cls-2" d="M249.32,449.63c6.04,5.84,9.4,12.47,10.07,19.9h-11.56c-1.29-5.64-3.85-10.11-7.69-13.4-3.84-3.3-9.23-4.94-16.18-4.94-8.46,0-15.3,3.03-20.51,9.09-5.21,6.06-7.81,15.35-7.81,27.87,0,10.26,2.35,18.57,7.05,24.95,4.7,6.38,11.71,9.57,21.04,9.57,8.58,0,15.12-3.36,19.6-10.07,2.38-3.53,4.15-8.18,5.32-13.94h11.56c-1.02,9.21-4.4,16.94-10.13,23.17-6.87,7.51-16.14,11.26-27.79,11.26-10.05,0-18.49-3.08-25.32-9.24-8.99-8.15-13.48-20.72-13.48-37.73,0-12.91,3.38-23.51,10.13-31.77,7.3-8.98,17.37-13.47,30.2-13.47,10.95,0,19.45,2.92,25.49,8.76Z"/><path class="cls-2" d="M276.67,443.25h63.5v10.72h-51.95v26.57h48.01v10.13h-48.01v29.67h52.84v10.42h-64.4v-87.51Z"/><path class="cls-2" d="M358.34,443.25h39.78c6.55,0,11.95.97,16.2,2.92,8.07,3.73,12.11,10.62,12.11,20.67,0,5.24-1.08,9.53-3.25,12.87-2.17,3.34-5.19,6.02-9.08,8.04,3.42,1.39,5.99,3.22,7.71,5.48s2.69,5.94,2.89,11.02l.42,11.74c.12,3.34.4,5.82.83,7.45.71,2.78,1.99,4.57,3.81,5.36v1.97h-14.54c-.4-.75-.71-1.73-.95-2.92s-.44-3.49-.6-6.91l-.71-14.59c-.27-5.72-2.33-9.55-6.19-11.5-2.2-1.07-5.65-1.61-10.36-1.61h-26.22v37.53h-11.85v-87.51ZM396.84,483.34c5.41,0,9.68-1.11,12.83-3.34,3.15-2.22,4.72-6.23,4.72-12.03,0-6.23-2.2-10.48-6.6-12.75-2.36-1.19-5.5-1.79-9.44-1.79h-28.15v29.9h26.65Z"/><path class="cls-2" d="M506.49,443.25v10.42h-29.49v77.08h-11.97v-77.08h-29.49v-10.42h70.95Z"/><path class="cls-2" d="M520.07,443.25h11.97v87.51h-11.97v-87.51Z"/><path class="cls-2" d="M552.42,443.25h60.7v10.72h-48.85v26.57h42.95v10.42h-42.95v39.79h-11.85v-87.51Z"/><path class="cls-2" d="M628.49,443.25h11.97v87.51h-11.97v-87.51Z"/><path class="cls-2" d="M660.84,443.25h63.5v10.72h-51.95v26.57h48.01v10.13h-48.01v29.67h52.84v10.42h-64.4v-87.51Z"/><path class="cls-2" d="M741.61,443.25h34.98c11.88,0,21.08,4.27,27.63,12.81,5.84,7.71,8.76,17.57,8.76,29.61,0,9.29-1.72,17.69-5.17,25.2-6.07,13.26-16.52,19.9-31.33,19.9h-34.86v-87.51ZM774.27,520.63c3.92,0,7.14-.42,9.67-1.25,4.5-1.55,8.19-4.53,11.07-8.94,2.29-3.53,3.94-8.06,4.95-13.58.58-3.3.87-6.35.87-9.17,0-10.84-2.11-19.26-6.32-25.26-4.21-6-11-9-20.36-9h-20.56v67.2h20.68Z"/><path class="cls-2" d="M189.42,543.17h48.15c9.52,0,17.2,2.7,23.06,8.09,5.85,5.4,8.78,12.98,8.78,22.74,0,8.4-2.61,15.71-7.83,21.94-5.22,6.23-13.21,9.34-23.98,9.34h-33.6v45.48h-14.58v-107.59ZM245.95,557.96c-3.2-1.51-7.59-2.27-13.16-2.27h-28.8v37.28h28.8c6.5,0,11.77-1.39,15.82-4.17s6.07-7.69,6.07-14.72c0-7.91-2.91-13.28-8.73-16.11Z"/><path class="cls-2" d="M289.83,543.17h48.91c8.05,0,14.7,1.2,19.92,3.59,9.92,4.59,14.89,13.06,14.89,25.42,0,6.45-1.33,11.72-3.99,15.82-2.66,4.1-6.38,7.4-11.17,9.89,4.2,1.71,7.36,3.96,9.48,6.74s3.31,7.3,3.55,13.55l.51,14.43c.15,4.1.49,7.15,1.03,9.16.88,3.42,2.44,5.62,4.69,6.59v2.42h-17.87c-.49-.93-.88-2.12-1.17-3.59s-.54-4.3-.73-8.5l-.88-17.94c-.33-7.03-2.87-11.74-7.61-14.14-2.71-1.32-6.95-1.98-12.74-1.98h-32.24v46.14h-14.58v-107.59ZM337.17,592.46c6.65,0,11.91-1.37,15.78-4.1,3.87-2.73,5.81-7.67,5.81-14.79,0-7.67-2.71-12.89-8.12-15.67-2.9-1.46-6.77-2.2-11.61-2.2h-34.62v36.77h32.76Z"/><path class="cls-2" d="M399.7,543.17h14.72v107.59h-14.72v-107.59Z"/><path class="cls-2" d="M446.61,543.17l30.91,91.63,30.54-91.63h16.33l-39.26,107.59h-15.45l-39.18-107.59h16.11Z"/><path class="cls-2" d="M558.34,543.17h16.48l39.04,107.59h-15.97l-10.91-32.23h-42.55l-11.65,32.23h-14.94l40.5-107.59ZM582.29,606.67l-16.33-47.53-17.36,47.53h33.69Z"/><path class="cls-2" d="M703.21,551c7.43,7.18,11.56,15.33,12.38,24.46h-14.21c-1.58-6.93-4.74-12.43-9.46-16.48-4.72-4.05-11.35-6.08-19.89-6.08-10.41,0-18.81,3.73-25.21,11.18-6.4,7.45-9.6,18.88-9.6,34.27,0,12.61,2.89,22.83,8.67,30.68,5.78,7.84,14.4,11.76,25.86,11.76,10.55,0,18.59-4.13,24.1-12.38,2.93-4.35,5.11-10.06,6.55-17.14h14.21c-1.26,11.33-5.41,20.83-12.45,28.49-8.45,9.23-19.84,13.84-34.17,13.84-12.36,0-22.73-3.79-31.13-11.36-11.05-10.02-16.58-25.48-16.58-46.39,0-15.88,4.15-28.9,12.45-39.06,8.98-11.04,21.35-16.56,37.14-16.56,13.46,0,23.91,3.59,31.34,10.77Z"/><path class="cls-2" d="M727.14,543.17h17l30.93,51.71,30.93-51.71h17.14l-40.75,64.23v43.36h-14.58v-43.36l-40.67-64.23Z"/><path class="cls-2" d="M236.3,666.05c6.32,3.37,10.19,9.27,11.61,17.71h-8.66c-1.03-4.72-3.17-8.15-6.41-10.31-3.24-2.15-7.33-3.23-12.26-3.23-5.85,0-10.78,2.24-14.78,6.72-4,4.48-6,11.16-6,20.04,0,7.68,1.65,13.92,4.95,18.74,3.3,4.82,8.68,7.23,16.15,7.23,5.71,0,10.44-1.69,14.19-5.08,3.75-3.38,5.66-8.85,5.75-16.41h-20.21v-7.25h28.34v34.54h-5.62l-2.11-8.31c-2.91,3.25-5.49,5.51-7.74,6.77-3.78,2.17-8.57,3.25-14.4,3.25-7.52,0-13.99-2.48-19.41-7.43-5.91-6.21-8.86-14.74-8.86-25.58s2.89-19.41,8.66-25.8c5.49-6.09,12.59-9.14,21.31-9.14,5.98,0,11.14,1.17,15.51,3.52Z"/><path class="cls-2" d="M272.78,664.2v39.9c0,4.69.89,8.58,2.66,11.69,2.63,4.69,7.06,7.03,13.29,7.03,7.47,0,12.55-2.53,15.24-7.6,1.45-2.75,2.17-6.46,2.17-11.12v-39.9h8.83v36.25c0,7.94-1.07,14.05-3.22,18.33-3.94,7.79-11.38,11.69-22.31,11.69s-18.36-3.9-22.27-11.69c-2.15-4.28-3.22-10.39-3.22-18.33v-36.25h8.83Z"/><path class="cls-2" d="M347.09,664.2h9.89l23.42,64.56h-9.58l-6.55-19.34h-25.53l-6.99,19.34h-8.96l24.3-64.56ZM361.46,702.3l-9.8-28.52-10.42,28.52h20.21Z"/><path class="cls-2" d="M389.41,664.2h29.34c4.83,0,8.82.72,11.95,2.15,5.95,2.75,8.93,7.84,8.93,15.25,0,3.87-.8,7.03-2.4,9.49-1.6,2.46-3.83,4.44-6.7,5.93,2.52,1.03,4.42,2.37,5.69,4.04s1.98,4.38,2.13,8.13l.31,8.66c.09,2.46.29,4.29.62,5.49.53,2.05,1.46,3.37,2.81,3.96v1.45h-10.72c-.29-.56-.53-1.27-.7-2.15s-.32-2.58-.44-5.1l-.53-10.77c-.2-4.22-1.72-7.05-4.57-8.48-1.62-.79-4.17-1.19-7.64-1.19h-19.34v27.69h-8.75v-64.56ZM417.82,693.78c3.99,0,7.14-.82,9.47-2.46,2.32-1.64,3.48-4.6,3.48-8.88,0-4.6-1.62-7.73-4.87-9.4-1.74-.88-4.06-1.32-6.97-1.32h-20.77v22.06h19.66Z"/><path class="cls-2" d="M472.12,664.2h9.89l23.42,64.56h-9.58l-6.55-19.34h-25.53l-6.99,19.34h-8.96l24.3-64.56ZM486.49,702.3l-9.8-28.52-10.42,28.52h20.21Z"/><path class="cls-2" d="M513.38,664.2h10.3l32.19,52.16v-52.16h8.35v64.56h-9.82l-32.67-52.1v52.1h-8.35v-64.56Z"/><path class="cls-2" d="M625.31,664.2v7.69h-21.75v56.87h-8.83v-56.87h-21.75v-7.69h52.34Z"/><path class="cls-2" d="M634.19,664.2h46.85v7.91h-38.32v19.6h35.42v7.47h-35.42v21.88h38.98v7.69h-47.5v-64.56Z"/><path class="cls-2" d="M694.22,664.2h46.85v7.91h-38.32v19.6h35.42v7.47h-35.42v21.88h38.98v7.69h-47.5v-64.56Z"/><path class="cls-2" d="M753.81,664.2h25.8c8.76,0,15.55,3.15,20.38,9.45,4.31,5.68,6.46,12.96,6.46,21.84,0,6.86-1.27,13.05-3.82,18.59-4.48,9.79-12.19,14.68-23.11,14.68h-25.72v-64.56ZM777.9,721.29c2.89,0,5.27-.31,7.13-.92,3.32-1.14,6.04-3.34,8.16-6.59,1.69-2.61,2.91-5.95,3.65-10.02.43-2.43.64-4.69.64-6.77,0-8-1.55-14.21-4.66-18.63-3.11-4.42-8.11-6.64-15.02-6.64h-15.17v49.57h15.25Z"/><path class="cls-2" d="M453.21,375.84c-12.33-5.24-24.71-12.25-36.91-20.97-22.28-15.91-35.89-31.53-36.46-32.19-1.14-1.32-1.14-3.31,0-4.63.57-.66,14.24-16.32,36.46-32.19,29.58-21.12,60.22-32.29,88.59-32.29,18.33,0,37.61,4.67,56.93,13.66l5.7-5.7c-21.16-10.24-42.4-15.56-62.63-15.56-29.97,0-62.13,11.65-93.01,33.7-22.95,16.39-37.2,32.71-37.79,33.4-3.6,4.16-3.6,10.42,0,14.58.59.69,14.78,16.97,37.79,33.4,11.73,8.38,23.64,15.25,35.55,20.56l5.77-5.77Z"/><path class="cls-2" d="M635.69,313.08c-.59-.69-14.81-16.99-37.79-33.4-7.44-5.31-14.96-10.02-22.5-14.11l-5.61,5.62c7.93,4.18,15.85,9.07,23.7,14.68,22.26,15.89,35.89,31.53,36.46,32.19,1.14,1.32,1.14,3.31,0,4.63-.57.66-14.24,16.33-36.46,32.19-29.58,21.12-60.21,32.29-88.59,32.29-13.96,0-28.46-2.71-43.12-7.97l-5.91,5.91c16.61,6.37,33.13,9.65,49.03,9.65,29.97,0,62.13-11.65,93.01-33.7,22.95-16.38,37.19-32.71,37.79-33.4,3.6-4.16,3.6-10.43,0-14.58Z"/><path class="cls-2" d="M474.8,354.26l5.38-5.38c-7.98-6.93-13.04-17.13-13.04-28.5,0-20.82,16.94-37.75,37.75-37.75,11.37,0,21.58,5.06,28.5,13.04l5.38-5.38c-8.31-9.35-20.42-15.26-33.89-15.26-25.01,0-45.35,20.34-45.35,45.35,0,13.47,5.91,25.57,15.26,33.89Z"/><rect class="cls-2" x="379.42" y="313.3" width="253.32" height="8.43" transform="translate(-76.29 450.84) rotate(-45)"/></g></svg>