<svg xmlns="http://www.w3.org/2000/svg" width="122.532" height="68.331" viewBox="0 0 122.532 68.331">
  <g id="icon_usp_translation" transform="translate(361 -869)">
    <g id="Gruppe_10" data-name="Gruppe 10" transform="translate(-361 869)">
      <g id="Gruppe_13" data-name="Gruppe 13">
        <path id="Pfad_6" data-name="Pfad 6" d="M33.231,68.331C14.9,68.331,0,53.008,0,34.169S14.908.008,33.231.008A33,33,0,0,1,59.57,13.316l-7.477,7.315A22.831,22.831,0,0,0,33.231,10.516c-12.677,0-22.985,10.615-22.985,23.654S20.561,57.824,33.231,57.824c6.677,0,16.3-14.839,24.046-26.754C67.654,15.085,77.447,0,89.377,0c18.285,0,33.154,15.277,33.154,34.062S107.662,68.124,89.377,68.124A32.861,32.861,0,0,1,63.116,54.839l7.408-7.4A22.8,22.8,0,0,0,89.377,57.616c12.631,0,22.908-10.569,22.908-23.554S102.008,10.508,89.377,10.508c-6.431,0-15.946,14.631-23.577,26.392C55.3,53.07,45.385,68.331,33.231,68.331" fill="#761981" fill-rule="evenodd"/>
        <path id="Pfad_7" data-name="Pfad 7" d="M66.966,79.175l-1.2-3.145H55.581l-1.2,3.213a11.236,11.236,0,0,1-1.2,2.539,1.9,1.9,0,0,1-1.624.658,2.381,2.381,0,0,1-1.692-.7,2.145,2.145,0,0,1-.735-1.59,3.552,3.552,0,0,1,.171-1.06q.171-.547.564-1.521l6.41-16.274.658-1.684a8.545,8.545,0,0,1,.821-1.632,3.332,3.332,0,0,1,1.145-1.051,3.514,3.514,0,0,1,1.752-.4,3.553,3.553,0,0,1,1.769.4,3.41,3.41,0,0,1,1.145,1.034,7.273,7.273,0,0,1,.735,1.359q.3.727.761,1.94l6.547,16.171a8.125,8.125,0,0,1,.769,2.684,2.222,2.222,0,0,1-.726,1.6,2.388,2.388,0,0,1-1.752.726,2.273,2.273,0,0,1-1.025-.214,2.1,2.1,0,0,1-.718-.581,5.325,5.325,0,0,1-.624-1.128q-.333-.76-.573-1.342M56.915,72.217H64.4L60.625,61.875Z" transform="translate(-30.935 -36.736)" fill="#e61f6e"/>
        <path id="Pfad_8" data-name="Pfad 8" d="M236.6,70.568c-.063.851-.126,1.67-.221,2.521h12.193c1.607,0,2.3.851,2.269,2.489a13.378,13.378,0,0,1-.977,4.852c-.662,1.638-1.7,2.269-3.97,2.269a16.355,16.355,0,0,1-3.5-.315,1,1,0,0,1-.851-1.008,1.939,1.939,0,0,1,.031-.41,1.033,1.033,0,0,1,1.008-.882,1.068,1.068,0,0,1,.315.032,13.532,13.532,0,0,0,2.8.315c1.26,0,1.638-.221,2.017-1.071a10.427,10.427,0,0,0,.662-3.34c0-.6-.189-.819-.819-.819H236.034a21.414,21.414,0,0,1-2.426,7.057,1.21,1.21,0,0,1-1.071.693,1.24,1.24,0,0,1-.662-.189,1.169,1.169,0,0,1-.662-1.008,1.273,1.273,0,0,1,.221-.693c2.394-3.907,3.087-9.105,3.087-18.148V58.784a2.49,2.49,0,0,1,2.552-2.8,50.6,50.6,0,0,0,11.847-1.8,1.567,1.567,0,0,1,.5-.095,1.143,1.143,0,0,1,1.1.788,1.427,1.427,0,0,1,.095.5,1.038,1.038,0,0,1-.851,1.071A68.033,68.033,0,0,1,237.8,58.06a.91.91,0,0,0-.945,1.008v1.039h10.933a2.224,2.224,0,0,1,2.521,2.521V68.11a2.2,2.2,0,0,1-2.521,2.458Zm.221-4.316c-.031.41-.031.819-.031,1.229-.032.378-.032.756-.063,1.134h10.492c.725,0,.945-.315.945-.945V66.252Zm11.343-1.859V63.006c0-.662-.221-.914-.945-.914H236.854v2.3Z" transform="translate(-150.268 -35.154)" fill="#009ee2"/>
        <path id="Pfad_9" data-name="Pfad 9" d="M231.562,82.5a1.764,1.764,0,0,1-.932-.263,1.676,1.676,0,0,1-.917-1.459,1.8,1.8,0,0,1,.3-.971c2.192-3.577,3.008-8.421,3.008-17.87V57.809a3.021,3.021,0,0,1,3.045-3.328,49.359,49.359,0,0,0,11.715-1.771,2.079,2.079,0,0,1,.667-.12,1.66,1.66,0,0,1,1.594,1.128,1.943,1.943,0,0,1,.128.689,1.552,1.552,0,0,1-1.242,1.579,70.138,70.138,0,0,1-12.075,1.623c-.334.017-.451.143-.451.484v.514h10.407a2.748,2.748,0,0,1,3.046,3.046v5.482a2.719,2.719,0,0,1-3.046,2.983h-10.7c-.038.5-.078.983-.125,1.47H247.6a2.782,2.782,0,0,1,2.068.728,3.037,3.037,0,0,1,.725,2.3,13.891,13.891,0,0,1-1.013,5.035c-.756,1.872-2.006,2.6-4.458,2.6a16.98,16.98,0,0,1-3.629-.332,1.532,1.532,0,0,1-1.244-1.517,2.453,2.453,0,0,1,.042-.513l.009-.038a1.546,1.546,0,0,1,1.514-1.267,1.57,1.57,0,0,1,.454.05,13.1,13.1,0,0,0,2.665.3c1.148,0,1.275-.17,1.537-.759a9.986,9.986,0,0,0,.617-3.14.71.71,0,0,0-.031-.26,1.507,1.507,0,0,0-.263-.02H235.5a21.43,21.43,0,0,1-2.407,6.8,1.732,1.732,0,0,1-1.526.955M248.45,53.64a1.079,1.079,0,0,0-.338.068,52.841,52.841,0,0,1-11.984,1.822,1.982,1.982,0,0,0-2.056,2.279v4.128c0,9.665-.857,14.658-3.165,18.422a.753.753,0,0,0-.143.419.651.651,0,0,0,.385.546l.042.026a.725.725,0,0,0,.37.1.693.693,0,0,0,.608-.415,20.871,20.871,0,0,0,2.373-6.9l.078-.431h11.97a1.181,1.181,0,0,1,1.344,1.344,11.009,11.009,0,0,1-.7,3.542c-.476,1.071-1.059,1.394-2.5,1.394a14,14,0,0,1-2.926-.329l-.045-.013a1.4,1.4,0,0,0-.149,0c-.107,0-.357,0-.5.478a1.561,1.561,0,0,0-.018.288c0,.18.036.383.466.5a15.8,15.8,0,0,0,3.357.3c2.269,0,2.975-.682,3.483-1.94a12.888,12.888,0,0,0,.939-4.664,2.113,2.113,0,0,0-.425-1.542,1.773,1.773,0,0,0-1.318-.413H234.82l.064-.583c.093-.834.154-1.626.219-2.5l.036-.486h11.673c1.38,0,2-.6,2-1.932V61.653c0-1.4-.6-2-2-2H235.354V58.093a1.428,1.428,0,0,1,1.444-1.533,69.128,69.128,0,0,0,11.865-1.59.523.523,0,0,0,.46-.563.9.9,0,0,0-.057-.309.632.632,0,0,0-.615-.458m-2.206,14.525H235.182l.047-.569c.015-.182.023-.364.03-.545s.016-.378.031-.567c0-.406,0-.825.033-1.247l.037-.485h12.354v1.943a1.318,1.318,0,0,1-1.47,1.47m-9.936-1.05h9.936c.4,0,.42-.048.42-.42V65.8H236.347c-.006.23-.006.463-.006.7l0,.043c-.015.182-.022.364-.03.545,0,.007,0,.013,0,.02m11.407-3.171H235.354v-3.35h10.891a1.279,1.279,0,0,1,1.47,1.439ZM236.4,62.893h10.26v-.861c0-.274-.047-.333-.047-.334s-.07-.055-.373-.055H236.4Z" transform="translate(-149.293 -34.179)" fill="#009ee2"/>
      </g>
    </g>
  </g>
</svg>
