<svg xmlns="http://www.w3.org/2000/svg" xmlns:xlink="http://www.w3.org/1999/xlink" width="85.623" height="67.072" viewBox="0 0 85.623 67.072">
  <defs>
    <clipPath id="clip-path">
      <rect id="Rechteck_3" data-name="Rechteck 3" width="85.623" height="67.072" fill="none"/>
    </clipPath>
  </defs>
  <g id="icon_random" transform="translate(343 -870)">
    <g id="Gruppe_6" data-name="Gruppe 6" transform="translate(-343 870)">
      <g id="Gruppe_5" data-name="Gruppe 5" clip-path="url(#clip-path)">
        <path id="Pfad_1" data-name="Pfad 1" d="M27.114,122.826a20.814,20.814,0,0,1-11.892,3.805H4.757a4.757,4.757,0,1,0,0,9.514H15.222a29.892,29.892,0,0,0,17.6-5.708,5.115,5.115,0,0,0,.952-6.659c-1.9-2.379-4.757-2.854-6.66-.952" transform="translate(0 -79.063)" fill="#FFBD02"/>
        <path id="Pfad_2" data-name="Pfad 2" d="M126.562,27.114a5.4,5.4,0,0,0,3.805-1.427,17.833,17.833,0,0,1,14.271-6.66h3.805l-1.427,1.427a4.6,4.6,0,0,0,0,6.66,4.6,4.6,0,0,0,6.66,0L163.19,17.6c.476-.476.951-.952.951-1.427a5.21,5.21,0,0,0,0-3.805c-.475-.476-.475-.952-.951-1.427l-9.514-9.514a4.6,4.6,0,0,0-6.66,0,4.6,4.6,0,0,0,0,6.66l1.427,1.427h-3.805A29.594,29.594,0,0,0,122.756,19.5c-1.9,1.9-1.427,4.757.476,6.66a4.529,4.529,0,0,0,3.33.951" transform="translate(-78.993 0)" fill="#FFBD02"/>
        <path id="Pfad_3" data-name="Pfad 3" d="M84.2,66.657l-9.514-9.513a4.709,4.709,0,0,0-6.66,6.659L69.45,65.23H62.315C54.7,65.23,48.52,60.949,45.19,54.29L39.482,42.873a28.758,28.758,0,0,0-25.687-15.7H4.757A4.494,4.494,0,0,0,0,31.932,4.5,4.5,0,0,0,4.757,36.69h9.038c7.611,0,13.795,4.281,17.125,10.941l5.708,11.416A28.345,28.345,0,0,0,62.315,75.22H69.45l-1.427,1.427a4.6,4.6,0,0,0,0,6.659,4.6,4.6,0,0,0,6.66,0L84.2,73.793c1.9-2.379,1.9-5.232,0-7.136" transform="translate(0 -17.662)" fill="#525151"/>
      </g>
    </g>
  </g>
</svg>
