<?xml version="1.0" encoding="UTF-8"?><svg xmlns="http://www.w3.org/2000/svg" xmlns:xlink="http://www.w3.org/1999/xlink" viewBox="0 0 1000 1000"><defs><style>.cls-1{fill:url(#linear-gradient);}.cls-1,.cls-2,.cls-3,.cls-4,.cls-5,.cls-6,.cls-7,.cls-8,.cls-9,.cls-10,.cls-11,.cls-12{stroke-width:0px;}.cls-2{fill:url(#linear-gradient-10);}.cls-3{fill:url(#linear-gradient-7);}.cls-3,.cls-4{mix-blend-mode:screen;}.cls-4{fill:url(#linear-gradient-3);}.cls-5{fill:url(#linear-gradient-8);fill-rule:evenodd;}.cls-6{fill:url(#linear-gradient-6);}.cls-6,.cls-10{opacity:.5;}.cls-7{fill:url(#linear-gradient-4);}.cls-8{fill:url(#linear-gradient-2);}.cls-9{fill:url(#linear-gradient-9);}.cls-13{isolation:isolate;}.cls-10{fill:url(#linear-gradient-5);mix-blend-mode:multiply;}.cls-14{stroke:#000;stroke-miterlimit:10;stroke-width:7.75px;}.cls-11{fill:#0b0b0b;}.cls-12{fill:#fff;}</style><linearGradient id="linear-gradient" x1="500" y1="-7.14" x2="500" y2="1015.5" gradientUnits="userSpaceOnUse"><stop offset="0" stop-color="#573400"/><stop offset=".09" stop-color="#b28f40"/><stop offset=".14" stop-color="#e4c163"/><stop offset=".25" stop-color="#ffef99"/><stop offset=".37" stop-color="#ffed97"/><stop offset=".47" stop-color="#e0c669"/><stop offset="1" stop-color="#ffed97"/></linearGradient><linearGradient id="linear-gradient-2" x1="500" y1="-450" x2="500" y2="1484.57" gradientUnits="userSpaceOnUse"><stop offset="0" stop-color="#efa620"/><stop offset=".03" stop-color="#ae4f26"/><stop offset=".12" stop-color="#e99923"/><stop offset=".6" stop-color="#f9f295"/><stop offset=".79" stop-color="#e99923"/><stop offset=".91" stop-color="#ae4f26"/><stop offset="1" stop-color="#efa620"/></linearGradient><linearGradient id="linear-gradient-3" x1="500" y1="60.34" x2="500" y2="540.23" gradientUnits="userSpaceOnUse"><stop offset="0" stop-color="#575756"/><stop offset="1" stop-color="#000"/></linearGradient><linearGradient id="linear-gradient-4" x1="500" y1="206.94" x2="500" y2="787.63" xlink:href="#linear-gradient"/><linearGradient id="linear-gradient-5" x1="500" y1="816.35" x2="500" y2="449.3" gradientUnits="userSpaceOnUse"><stop offset="0" stop-color="#9d7a31"/><stop offset="1" stop-color="#e4c163"/></linearGradient><linearGradient id="linear-gradient-6" x1="212.68" y1="353.14" x2="787.32" y2="353.14" gradientUnits="userSpaceOnUse"><stop offset="0" stop-color="#e4c163"/><stop offset=".56" stop-color="#ffef99"/><stop offset="1" stop-color="#e0c669"/></linearGradient><linearGradient id="linear-gradient-7" x1="500" y1="226.3" x2="500" y2="666.35" gradientUnits="userSpaceOnUse"><stop offset="0" stop-color="#575756"/><stop offset=".04" stop-color="#515150"/><stop offset=".32" stop-color="#2d2d2d"/><stop offset=".58" stop-color="#141414"/><stop offset=".81" stop-color="#050505"/><stop offset="1" stop-color="#000"/></linearGradient><linearGradient id="linear-gradient-8" x1="324.42" y1="474.95" x2="675.58" y2="474.95" gradientUnits="userSpaceOnUse"><stop offset="0" stop-color="#eeb446"/><stop offset=".6" stop-color="#f9f295"/><stop offset="1" stop-color="#e99923"/></linearGradient><linearGradient id="linear-gradient-9" x1="499.09" y1="570.28" x2="499.09" y2="699.09" gradientUnits="userSpaceOnUse"><stop offset="0" stop-color="#f9f295"/><stop offset="1" stop-color="#e99923"/></linearGradient><linearGradient id="linear-gradient-10" x1="499.09" y1="708.76" x2="499.09" y2="570.23" xlink:href="#linear-gradient-8"/></defs><g class="cls-13"><g id="Ebene_2"><g id="Layer_1"><path class="cls-1" d="M500,1000c-133.56,0-259.12-52.01-353.55-146.45C52.01,759.12,0,633.55,0,500S52.01,240.88,146.45,146.45C240.88,52.01,366.44,0,500,0s259.12,52.01,353.55,146.45c94.44,94.44,146.45,220,146.45,353.55s-52.01,259.12-146.45,353.55c-94.44,94.44-220,146.45-353.55,146.45Z"/><path class="cls-8" d="M500,988.09c-130.37,0-252.95-50.77-345.14-142.96C62.68,752.95,11.9,630.38,11.9,500S62.68,247.05,154.86,154.86C247.05,62.68,369.62,11.9,500,11.9s252.95,50.77,345.14,142.96c92.19,92.19,142.96,214.76,142.96,345.14s-50.77,252.95-142.96,345.14c-92.19,92.19-214.76,142.96-345.14,142.96Z"/><path class="cls-11" d="M810.89,189.12c-83.04-83.04-193.45-128.78-310.89-128.78s-227.85,45.73-310.88,128.78C106.07,272.15,60.34,382.56,60.34,500s45.73,227.85,128.78,310.89c83.04,83.04,193.45,128.77,310.88,128.77s227.84-45.73,310.89-128.77c83.04-83.04,128.77-193.45,128.77-310.89s-45.73-227.85-128.77-310.88ZM734.14,734.14c-62.54,62.54-145.7,96.98-234.14,96.98s-171.6-34.44-234.14-96.98c-62.54-62.54-96.99-145.7-96.99-234.14s34.44-171.6,96.99-234.14c62.54-62.54,145.69-96.99,234.14-96.99s171.6,34.44,234.14,96.99c62.54,62.54,96.98,145.69,96.98,234.14s-34.44,171.6-96.98,234.14Z"/><path class="cls-4" d="M835.16,533.94c39.09-39.09,70.5-83.8,93.5-132.31-18.16-79.86-58.44-153.18-117.77-212.51-83.04-83.04-193.45-128.78-310.89-128.78s-227.85,45.73-310.88,128.78c-59.34,59.33-99.61,132.65-117.78,212.51,23,48.51,54.41,93.22,93.5,132.31,2.13,2.13,4.28,4.21,6.44,6.29-1.59-13.25-2.41-26.67-2.41-40.23,0-88.45,34.44-171.6,96.99-234.14,62.54-62.54,145.69-96.99,234.14-96.99s171.6,34.44,234.14,96.99c62.54,62.54,96.98,145.69,96.98,234.14,0,13.55-.82,26.98-2.41,40.23,2.16-2.08,4.32-4.16,6.45-6.29Z"/><path class="cls-12" d="M148.41,305.22l-1.6-.85c-4.04-2.14-8.08-2.24-9.87,1.14-1.99,3.76.02,6.99,3.03,8.59,13.24,7.03,21.92-24.96,46.43-11.95,14.28,7.58,16.23,19.33,8.05,34.73-7.68,14.46-16.94,19.9-30.84,12.52l-2.35-1.25,8.97-16.91,1.6.85c5.73,3.04,9.04,1.79,10.84-1.59,1.94-3.66.17-7.13-3.49-9.08-13.24-7.03-21.23,23.89-44.99,11.27-13.62-7.23-17.11-18.35-9.28-33.09,8.13-15.31,17.81-18.36,32.18-10.73l-8.67,16.34ZM169.92,233.62l16.13-18.93,69.77,35.15-13.65,16.02-11.42-7.08-10.2,11.97,8.8,10.16-13.65,16.02-45.77-63.31ZM189.87,234.13l-.14.16,21,25.02,7.17-8.42-28.03-16.76ZM238.33,187.48l-11.59,9.34-10.54-13.08,38.59-31.07,10.54,13.08-11.59,9.34,37.07,46.04-15.4,12.4-37.07-46.04ZM283.98,134.32l17.22-9.72,37.33,66.09-17.22,9.72-37.33-66.09ZM372.39,117.76l-.6-1.71c-1.51-4.31-4.42-7.12-8.03-5.86-4.01,1.41-4.73,5.15-3.6,8.36,4.97,14.14,33.03-3.48,42.22,22.7,5.35,15.25-1.18,25.2-17.63,30.98-15.45,5.42-25.94,3.14-31.15-11.71l-.88-2.51,18.06-6.34.6,1.71c2.15,6.12,5.43,7.44,9.04,6.18,3.91-1.37,4.96-5.12,3.59-9.03-4.97-14.14-31.79,3.16-40.7-22.22-5.11-14.55-.13-25.08,15.62-30.61,16.35-5.74,25.53-1.41,30.92,13.93l-17.45,6.13ZM423.88,81.53l44.59-5.82,2.09,16.02-24.98,3.26,1.68,12.86,23.4-3.05,2.01,15.39-23.4,3.05,4.04,30.99-19.61,2.56-9.82-75.26ZM515.76,75.33l24.82,1.63,13.49,76.96-21.01-1.38-1.14-13.39-15.7-1.03-2.89,13.13-21.01-1.38,23.43-74.53ZM527.26,91.64h-.21s-7.52,31.78-7.52,31.78l11.03.72-3.3-32.5ZM618.24,115.96c2.4-8.27,1.58-11.17-2.09-12.23-5.72-1.66-7.98,3.44-13.7,23.15-5.73,19.71-6.55,25.22-.84,26.88,4.59,1.34,6.9-2.42,10.91-16.21l18.38,5.34-1.57,5.41c-5.94,20.42-19.2,21.88-31.46,18.32-21.34-6.2-22.95-18.19-15.03-45.45,8.1-27.87,17.34-36.04,37.05-30.31,17.15,4.98,20.97,15.84,16.88,29.93l-1.33,4.59-18.38-5.34,1.19-4.08ZM681.69,134.63l-13.14-7,7.9-14.83,43.74,23.29-7.9,14.83-13.14-7-27.79,52.18-17.46-9.3,27.79-52.18ZM748.51,155.78l15.7,12.02-46.14,60.28-15.7-12.02,46.14-60.28ZM812.49,211.14c13.66,14.87,10.2,27.44-10.7,46.64-20.9,19.2-33.71,21.59-47.38,6.72-13.67-14.87-10.2-27.44,10.7-46.64,20.9-19.2,33.71-21.59,47.38-6.72ZM764.27,255.44c4.03,4.38,8.6,1.19,23.71-12.69,15.11-13.88,18.67-18.17,14.65-22.55-4.03-4.38-8.6-1.19-23.71,12.69-15.11,13.88-18.67,18.17-14.65,22.55ZM854.27,265.7l10.95,19.21-34.33,34.24.1.18,40.64-23.15,9.16,16.07-65.95,37.57-10.73-18.84,34.21-34.66-.1-.18-40.73,23.21-9.16-16.07,65.95-37.57Z"/><path class="cls-7" d="M500,787.32c-76.75,0-148.9-29.89-203.16-84.15-54.27-54.27-84.16-126.42-84.16-203.17s29.89-148.9,84.15-203.16c54.27-54.27,126.42-84.16,203.16-84.16s148.9,29.89,203.17,84.15c54.27,54.27,84.15,126.42,84.15,203.16s-29.89,148.9-84.15,203.17c-54.27,54.26-126.42,84.15-203.17,84.15Z"/><path class="cls-10" d="M703.17,703.17c-54.27,54.26-126.42,84.15-203.17,84.15s-148.9-29.89-203.16-84.15c-53.76-53.76-83.58-125.08-84.13-201.03,0,.71-.03,1.42-.03,2.13,0,76.75,29.89,148.9,84.16,203.17,54.26,54.27,126.42,84.15,203.16,84.15s148.9-29.88,203.17-84.15c54.27-54.27,84.15-126.42,84.15-203.17,0-.71-.02-1.42-.03-2.13-.55,75.95-30.36,147.27-84.13,201.04Z"/><path class="cls-6" d="M296.84,296.84c54.27-54.27,126.42-84.16,203.16-84.16s148.9,29.89,203.17,84.15c53.76,53.76,83.58,125.08,84.13,201.03,0-.71.03-1.42.03-2.13,0-76.75-29.89-148.9-84.15-203.16-54.27-54.27-126.42-84.15-203.17-84.15s-148.9,29.89-203.16,84.16c-54.27,54.26-84.15,126.41-84.15,203.16,0,.71.02,1.42.03,2.13.55-75.95,30.36-147.27,84.13-201.03Z"/><path class="cls-11" d="M500,773.7c-73.11,0-141.84-28.47-193.53-80.16-51.69-51.7-80.16-120.43-80.16-193.53s28.47-141.84,80.16-193.53c51.69-51.7,120.42-80.17,193.53-80.17s141.84,28.47,193.53,80.16c51.7,51.69,80.16,120.42,80.16,193.53s-28.47,141.84-80.16,193.54c-51.7,51.69-120.43,80.16-193.53,80.16Z"/><path class="cls-3" d="M500,226.3c-73.11,0-141.84,28.47-193.53,80.17-51.69,51.69-80.16,120.42-80.16,193.53,0,29.3,4.58,57.88,13.39,84.96,75.86,52.89,165.89,81.39,260.31,81.39s184.45-28.5,260.31-81.39c8.8-27.07,13.39-55.66,13.39-84.96,0-73.11-28.47-141.84-80.16-193.53-51.7-51.7-120.43-80.16-193.53-80.16Z"/><path class="cls-5" d="M500,299.36c-96.97,0-175.58,78.61-175.58,175.58s78.61,175.58,175.58,175.58,175.58-78.61,175.58-175.58-78.61-175.58-175.58-175.58ZM541.62,372.62c31.66-.35,31.67,87.92,0,87.58-31.66.35-31.67-87.92,0-87.58ZM451.21,372.62c31.66-.35,31.67,87.92,0,87.58-31.66.35-31.67-87.92,0-87.58ZM371.99,482.06c24.81,29.74,61.14,63.9,127.35,63.9,79.11,0,92.95-28.29,127.35-62.17-58.05,120.69-196.25,110.87-254.7-1.72Z"/><path class="cls-14" d="M395.65,573.81v123.85h-30.9v-66.4c0-9.59-.23-15.35-.69-17.29-.46-1.94-1.72-3.4-3.79-4.4-2.07-.99-6.67-1.49-13.81-1.49h-3.06v-14.44c14.94-3.22,26.29-9.83,34.04-19.83h18.21ZM480.56,615.73v41.31c0,9.38-.51,16.22-1.53,20.5-1.02,4.28-3.14,8.29-6.35,12.01-3.21,3.72-7.09,6.4-11.63,8.03-4.54,1.63-9.61,2.45-15.22,2.45-7.39,0-13.54-.85-18.44-2.56-4.9-1.71-8.8-4.37-11.7-7.99-2.91-3.62-4.97-7.43-6.2-11.44-1.22-4-1.84-10.37-1.84-19.09v-43.22c0-11.37.98-19.89,2.95-25.55,1.96-5.66,5.86-10.2,11.7-13.62,5.84-3.42,12.91-5.13,21.23-5.13,6.78,0,12.85,1.19,18.21,3.56,5.35,2.37,9.36,5.27,12.01,8.68,2.65,3.42,4.45,7.27,5.39,11.55.94,4.28,1.42,11.12,1.42,20.5ZM449.66,605.33c0-6.58-.32-10.7-.96-12.35-.64-1.66-2.13-2.49-4.48-2.49s-3.81.88-4.55,2.64c-.74,1.76-1.11,5.83-1.11,12.2v60.43c0,7.19.34,11.53,1.03,13,.69,1.48,2.18,2.22,4.48,2.22s3.8-.87,4.51-2.6c.71-1.73,1.07-5.63,1.07-11.7v-61.35ZM564.56,615.73v41.31c0,9.38-.51,16.22-1.53,20.5-1.02,4.28-3.14,8.29-6.35,12.01-3.21,3.72-7.09,6.4-11.63,8.03-4.54,1.63-9.61,2.45-15.22,2.45-7.4,0-13.54-.85-18.44-2.56-4.9-1.71-8.8-4.37-11.7-7.99-2.91-3.62-4.97-7.43-6.2-11.44-1.22-4-1.84-10.37-1.84-19.09v-43.22c0-11.37.98-19.89,2.95-25.55,1.96-5.66,5.86-10.2,11.7-13.62,5.84-3.42,12.91-5.13,21.23-5.13,6.78,0,12.85,1.19,18.21,3.56,5.35,2.37,9.36,5.27,12.01,8.68,2.65,3.42,4.45,7.27,5.39,11.55.94,4.28,1.42,11.12,1.42,20.5ZM533.65,605.33c0-6.58-.32-10.7-.96-12.35-.64-1.66-2.13-2.49-4.48-2.49s-3.81.88-4.55,2.64c-.74,1.76-1.11,5.83-1.11,12.2v60.43c0,7.19.34,11.53,1.03,13,.69,1.48,2.18,2.22,4.48,2.22s3.8-.87,4.51-2.6c.71-1.73,1.07-5.63,1.07-11.7v-61.35ZM608.82,615.47v17.01c0,4.45-.42,7.78-1.25,10.01-.84,2.22-2.63,4.16-5.39,5.81-2.75,1.65-6.4,2.48-10.92,2.48-5.22,0-9.2-.78-11.93-2.36-2.73-1.57-4.58-3.46-5.54-5.66-.96-2.2-1.44-5.36-1.44-9.49v-17.81c0-4.9.5-8.52,1.5-10.86,1-2.35,2.93-4.25,5.78-5.72,2.85-1.47,6.38-2.2,10.59-2.2,4.65,0,8.42.81,11.32,2.42,2.9,1.61,4.83,3.56,5.81,5.84.98,2.29,1.47,5.79,1.47,10.53ZM593.15,611.13c0-2.61-.13-4.22-.4-4.83-.27-.61-.99-.92-2.17-.92-1.1,0-1.82.33-2.14.98-.33.65-.49,2.24-.49,4.77v24.97c0,2.86.14,4.57.43,5.14.28.57,1.04.86,2.26.86,1.06,0,1.74-.33,2.05-.98.31-.65.46-2.18.46-4.59v-25.4ZM637.64,596.69l-38.74,102.87h-9.42l38.87-102.87h9.29ZM654.78,663.33v17.07c0,4.41-.42,7.73-1.25,9.98-.84,2.24-2.63,4.19-5.39,5.84-2.75,1.65-6.4,2.48-10.92,2.48-5.18,0-9.15-.8-11.9-2.39-2.75-1.59-4.61-3.49-5.57-5.69-.96-2.2-1.44-5.34-1.44-9.42v-17.87c0-4.85.5-8.45,1.5-10.8,1-2.35,2.93-4.26,5.78-5.75,2.85-1.49,6.38-2.23,10.59-2.23,4.69,0,8.48.82,11.38,2.45,2.9,1.63,4.82,3.59,5.78,5.87.96,2.29,1.44,5.77,1.44,10.46ZM639.11,659.05c0-2.61-.13-4.23-.4-4.87-.27-.63-.99-.95-2.17-.95-1.1,0-1.81.33-2.11.98-.31.65-.46,2.26-.46,4.83v24.97c0,2.81.14,4.51.43,5.08.28.57,1.02.86,2.2.86,1.1,0,1.79-.32,2.08-.95.28-.63.43-2.17.43-4.62v-25.34Z"/><path class="cls-12" d="M395.65,573.81v123.85h-30.9v-66.4c0-9.59-.23-15.35-.69-17.29-.46-1.94-1.72-3.4-3.79-4.4-2.07-.99-6.67-1.49-13.81-1.49h-3.06v-14.44c14.94-3.22,26.29-9.83,34.04-19.83h18.21ZM480.56,615.73v41.31c0,9.38-.51,16.22-1.53,20.5-1.02,4.28-3.14,8.29-6.35,12.01-3.21,3.72-7.09,6.4-11.63,8.03-4.54,1.63-9.61,2.45-15.22,2.45-7.39,0-13.54-.85-18.44-2.56-4.9-1.71-8.8-4.37-11.7-7.99-2.91-3.62-4.97-7.43-6.2-11.44-1.22-4-1.84-10.37-1.84-19.09v-43.22c0-11.37.98-19.89,2.95-25.55,1.96-5.66,5.86-10.2,11.7-13.62,5.84-3.42,12.91-5.13,21.23-5.13,6.78,0,12.85,1.19,18.21,3.56,5.35,2.37,9.36,5.27,12.01,8.68,2.65,3.42,4.45,7.27,5.39,11.55.94,4.28,1.42,11.12,1.42,20.5ZM449.66,605.33c0-6.58-.32-10.7-.96-12.35-.64-1.66-2.13-2.49-4.48-2.49s-3.81.88-4.55,2.64c-.74,1.76-1.11,5.83-1.11,12.2v60.43c0,7.19.34,11.53,1.03,13,.69,1.48,2.18,2.22,4.48,2.22s3.8-.87,4.51-2.6c.71-1.73,1.07-5.63,1.07-11.7v-61.35ZM564.56,615.73v41.31c0,9.38-.51,16.22-1.53,20.5-1.02,4.28-3.14,8.29-6.35,12.01-3.21,3.72-7.09,6.4-11.63,8.03-4.54,1.63-9.61,2.45-15.22,2.45-7.4,0-13.54-.85-18.44-2.56-4.9-1.71-8.8-4.37-11.7-7.99-2.91-3.62-4.97-7.43-6.2-11.44-1.22-4-1.84-10.37-1.84-19.09v-43.22c0-11.37.98-19.89,2.95-25.55,1.96-5.66,5.86-10.2,11.7-13.62,5.84-3.42,12.91-5.13,21.23-5.13,6.78,0,12.85,1.19,18.21,3.56,5.35,2.37,9.36,5.27,12.01,8.68,2.65,3.42,4.45,7.27,5.39,11.55.94,4.28,1.42,11.12,1.42,20.5ZM533.65,605.33c0-6.58-.32-10.7-.96-12.35-.64-1.66-2.13-2.49-4.48-2.49s-3.81.88-4.55,2.64c-.74,1.76-1.11,5.83-1.11,12.2v60.43c0,7.19.34,11.53,1.03,13,.69,1.48,2.18,2.22,4.48,2.22s3.8-.87,4.51-2.6c.71-1.73,1.07-5.63,1.07-11.7v-61.35ZM608.82,615.47v17.01c0,4.45-.42,7.78-1.25,10.01-.84,2.22-2.63,4.16-5.39,5.81-2.75,1.65-6.4,2.48-10.92,2.48-5.22,0-9.2-.78-11.93-2.36-2.73-1.57-4.58-3.46-5.54-5.66-.96-2.2-1.44-5.36-1.44-9.49v-17.81c0-4.9.5-8.52,1.5-10.86,1-2.35,2.93-4.25,5.78-5.72,2.85-1.47,6.38-2.2,10.59-2.2,4.65,0,8.42.81,11.32,2.42,2.9,1.61,4.83,3.56,5.81,5.84.98,2.29,1.47,5.79,1.47,10.53ZM593.15,611.13c0-2.61-.13-4.22-.4-4.83-.27-.61-.99-.92-2.17-.92-1.1,0-1.82.33-2.14.98-.33.65-.49,2.24-.49,4.77v24.97c0,2.86.14,4.57.43,5.14.28.57,1.04.86,2.26.86,1.06,0,1.74-.33,2.05-.98.31-.65.46-2.18.46-4.59v-25.4ZM637.64,596.69l-38.74,102.87h-9.42l38.87-102.87h9.29ZM654.78,663.33v17.07c0,4.41-.42,7.73-1.25,9.98-.84,2.24-2.63,4.19-5.39,5.84-2.75,1.65-6.4,2.48-10.92,2.48-5.18,0-9.15-.8-11.9-2.39-2.75-1.59-4.61-3.49-5.57-5.69-.96-2.2-1.44-5.34-1.44-9.42v-17.87c0-4.85.5-8.45,1.5-10.8,1-2.35,2.93-4.26,5.78-5.75,2.85-1.49,6.38-2.23,10.59-2.23,4.69,0,8.48.82,11.38,2.45,2.9,1.63,4.82,3.59,5.78,5.87.96,2.29,1.44,5.77,1.44,10.46ZM639.11,659.05c0-2.61-.13-4.23-.4-4.87-.27-.63-.99-.95-2.17-.95-1.1,0-1.81.33-2.11.98-.31.65-.46,2.26-.46,4.83v24.97c0,2.81.14,4.51.43,5.08.28.57,1.02.86,2.2.86,1.1,0,1.79-.32,2.08-.95.28-.63.43-2.17.43-4.62v-25.34Z"/><path class="cls-9" d="M395.65,575.38v123.85h-30.9v-66.4c0-9.59-.23-15.35-.69-17.29-.46-1.94-1.72-3.4-3.79-4.4s-6.67-1.49-13.81-1.49h-3.06v-14.44c14.94-3.22,26.29-9.83,34.04-19.83h18.21ZM480.56,617.3v41.31c0,9.38-.51,16.22-1.53,20.5-1.02,4.28-3.14,8.29-6.35,12.01-3.21,3.72-7.09,6.4-11.63,8.03-4.54,1.63-9.61,2.45-15.22,2.45-7.39,0-13.54-.85-18.44-2.56-4.9-1.71-8.8-4.37-11.7-7.99-2.91-3.62-4.97-7.43-6.2-11.44-1.22-4-1.84-10.37-1.84-19.09v-43.22c0-11.37.98-19.89,2.95-25.55,1.96-5.66,5.86-10.2,11.7-13.62,5.84-3.42,12.91-5.13,21.23-5.13,6.78,0,12.85,1.19,18.21,3.56,5.35,2.37,9.36,5.27,12.01,8.68,2.65,3.42,4.45,7.27,5.39,11.55.94,4.28,1.42,11.12,1.42,20.5ZM449.66,606.9c0-6.58-.32-10.7-.96-12.35-.64-1.66-2.13-2.49-4.48-2.49s-3.81.88-4.55,2.64c-.74,1.76-1.11,5.83-1.11,12.2v60.43c0,7.19.34,11.53,1.03,13,.69,1.48,2.18,2.22,4.48,2.22s3.8-.87,4.51-2.6c.71-1.73,1.07-5.63,1.07-11.7v-61.35ZM564.56,617.3v41.31c0,9.38-.51,16.22-1.53,20.5-1.02,4.28-3.14,8.29-6.35,12.01-3.21,3.72-7.09,6.4-11.63,8.03-4.54,1.63-9.61,2.45-15.22,2.45-7.4,0-13.54-.85-18.44-2.56-4.9-1.71-8.8-4.37-11.7-7.99-2.91-3.62-4.97-7.43-6.2-11.44-1.22-4-1.84-10.37-1.84-19.09v-43.22c0-11.37.98-19.89,2.95-25.55,1.96-5.66,5.86-10.2,11.7-13.62,5.84-3.42,12.91-5.13,21.23-5.13,6.78,0,12.85,1.19,18.21,3.56,5.35,2.37,9.36,5.27,12.01,8.68,2.65,3.42,4.45,7.27,5.39,11.55.94,4.28,1.42,11.12,1.42,20.5ZM533.65,606.9c0-6.58-.32-10.7-.96-12.35-.64-1.66-2.13-2.49-4.48-2.49s-3.81.88-4.55,2.64c-.74,1.76-1.11,5.83-1.11,12.2v60.43c0,7.19.34,11.53,1.03,13,.69,1.48,2.18,2.22,4.48,2.22s3.8-.87,4.51-2.6c.71-1.73,1.07-5.63,1.07-11.7v-61.35ZM608.82,617.04v17.01c0,4.45-.42,7.78-1.25,10.01-.84,2.22-2.63,4.16-5.39,5.81-2.75,1.65-6.4,2.48-10.92,2.48-5.22,0-9.2-.78-11.93-2.36-2.73-1.57-4.58-3.46-5.54-5.66-.96-2.2-1.44-5.36-1.44-9.49v-17.81c0-4.9.5-8.52,1.5-10.86,1-2.35,2.93-4.25,5.78-5.72,2.85-1.47,6.38-2.2,10.59-2.2,4.65,0,8.42.81,11.32,2.42,2.9,1.61,4.83,3.56,5.81,5.84.98,2.29,1.47,5.79,1.47,10.53ZM593.15,612.7c0-2.61-.13-4.22-.4-4.83-.27-.61-.99-.92-2.17-.92-1.1,0-1.82.33-2.14.98-.33.65-.49,2.24-.49,4.77v24.97c0,2.86.14,4.57.43,5.14.28.57,1.04.86,2.26.86,1.06,0,1.74-.33,2.05-.98.31-.65.46-2.18.46-4.59v-25.4ZM637.64,598.25l-38.74,102.87h-9.42l38.87-102.87h9.29ZM654.78,664.9v17.07c0,4.41-.42,7.73-1.25,9.97-.84,2.24-2.63,4.19-5.39,5.84-2.75,1.65-6.4,2.48-10.92,2.48-5.18,0-9.15-.8-11.9-2.39-2.75-1.59-4.61-3.49-5.57-5.69-.96-2.2-1.44-5.34-1.44-9.42v-17.87c0-4.85.5-8.45,1.5-10.8,1-2.35,2.93-4.26,5.78-5.75,2.85-1.49,6.38-2.23,10.59-2.23,4.69,0,8.48.82,11.38,2.45,2.9,1.63,4.82,3.59,5.78,5.87.96,2.29,1.44,5.77,1.44,10.46ZM639.11,660.61c0-2.61-.13-4.23-.4-4.87-.27-.63-.99-.95-2.17-.95-1.1,0-1.81.33-2.11.98-.31.65-.46,2.26-.46,4.83v24.97c0,2.82.14,4.51.43,5.08.28.57,1.02.86,2.2.86,1.1,0,1.79-.32,2.08-.95.28-.63.43-2.17.43-4.62v-25.34Z"/><path class="cls-2" d="M529.83,696.9c-6.83,0-12.51-.77-16.89-2.3-4.09-1.43-7.22-3.55-9.59-6.5-2.52-3.14-4.32-6.46-5.37-9.87-1.08-3.54-1.63-9.5-1.63-17.71v-43.22c0-10.79.9-18.87,2.69-24.01,1.6-4.61,4.75-8.24,9.64-11.1,5.08-2.97,11.43-4.48,18.85-4.48,6.09,0,11.58,1.06,16.3,3.15,4.61,2.04,8.04,4.49,10.2,7.27,2.24,2.89,3.71,6.05,4.51,9.68.87,3.93,1.31,10.49,1.31,19.49v41.31c0,8.97-.47,15.5-1.4,19.41-.84,3.52-2.63,6.9-5.33,10.03-2.7,3.13-5.86,5.31-9.66,6.68-4.01,1.44-8.6,2.17-13.63,2.17ZM528.22,587.36c-4.17,0-7.41,2.01-8.88,5.52-.69,1.64-1.48,4.71-1.48,14.02v60.43c0,10.4.71,13.35,1.47,14.99.86,1.84,3.13,4.93,8.74,4.93,4.19,0,7.42-2.01,8.86-5.51.66-1.61,1.42-4.61,1.42-13.49v-61.35c0-9.47-.64-12.41-1.27-14.04-.64-1.65-2.77-5.5-8.86-5.5ZM445.84,696.9c-6.83,0-12.51-.77-16.89-2.3-4.09-1.43-7.22-3.55-9.59-6.5-2.52-3.14-4.32-6.46-5.37-9.87-1.08-3.54-1.63-9.5-1.63-17.71v-43.22c0-10.79.9-18.87,2.69-24.01,1.6-4.61,4.75-8.24,9.64-11.1,5.08-2.97,11.43-4.48,18.85-4.48,6.09,0,11.58,1.06,16.3,3.15,4.61,2.04,8.04,4.49,10.2,7.27,2.24,2.89,3.72,6.05,4.52,9.68.87,3.93,1.3,10.49,1.3,19.49v41.31c0,8.97-.47,15.5-1.4,19.41-.84,3.52-2.63,6.9-5.33,10.03-2.7,3.13-5.86,5.32-9.66,6.68-4.01,1.44-8.6,2.17-13.63,2.17ZM444.23,587.36c-4.17,0-7.41,2.01-8.88,5.52-.69,1.63-1.48,4.7-1.48,14.02v60.43c0,10.4.71,13.35,1.47,14.99.86,1.84,3.13,4.93,8.74,4.93,4.19,0,7.42-2.01,8.86-5.51.66-1.61,1.42-4.6,1.42-13.49v-61.35c0-9.46-.64-12.41-1.27-14.04-.64-1.66-2.77-5.5-8.86-5.5ZM640.2,695.41c1.65-.86,2.44-2.19,2.77-2.91.51-1.13.84-2.67.84-6.56v-25.34c0-4.04-.29-5.55-.76-6.68-.29-.69-.97-1.91-2.4-2.79,1.81.3,3.36.81,4.6,1.51,1.95,1.1,3.21,2.31,3.76,3.6.4.95,1.07,3.35,1.07,8.64v17.07c0,4.76-.52,7.16-.96,8.33-.45,1.21-1.59,2.37-3.4,3.45-1.42.85-3.27,1.4-5.52,1.65ZM632.61,695.28c-2.5-.34-4.03-.94-4.95-1.47-1.85-1.07-3.07-2.25-3.61-3.5-.48-1.1-1.05-3.3-1.05-7.55v-17.87c0-5.23.61-7.76,1.12-8.96.56-1.33,1.75-2.45,3.63-3.43,1.39-.72,3.05-1.22,4.96-1.48-1.49.85-2.23,2.08-2.55,2.75-.54,1.16-.9,2.76-.9,6.83v24.97c0,4.46.34,6.01.93,7.19.37.74,1.08,1.77,2.41,2.52ZM369.45,694.53v-61.7c0-13.23-.44-16.77-.81-18.37-.55-2.32-2.09-5.51-6.32-7.55-1.79-.86-5.03-1.84-14.21-1.95v-6.04c13.32-3.49,23.92-9.81,31.58-18.84h11.27v114.45h-21.5ZM594.31,647.49c1.54-.85,2.31-2.12,2.63-2.81.65-1.38.9-3.23.9-6.58v-25.4c0-4.07-.3-5.58-.78-6.7-.29-.67-.97-1.84-2.36-2.7,1.78.3,3.3.8,4.54,1.48,1.95,1.09,3.22,2.29,3.78,3.59.41.95,1.09,3.34,1.09,8.67v17.01c0,4.8-.52,7.19-.95,8.35-.45,1.19-1.59,2.35-3.4,3.44-1.4.84-3.22,1.39-5.44,1.64ZM586.47,647.35c-2.43-.34-3.91-.92-4.81-1.43-1.83-1.05-3.03-2.21-3.57-3.46-.48-1.1-1.05-3.31-1.05-7.61v-17.81c0-5.56.7-8.04,1.12-9.02.56-1.32,1.74-2.43,3.61-3.39,1.39-.72,3.06-1.21,4.99-1.47-1.45.83-2.2,2-2.53,2.65-.71,1.41-.99,3.34-.99,6.88v24.97c0,4.54.33,6.05.93,7.25.35.71,1.04,1.71,2.29,2.44Z"/><path class="cls-12" d="M186.67,718.1l14.69,20.86-33.73,23.75-7.71-10.95,5.23-4.2-.12-.17c-6.86,1.71-12.26-3.2-16.12-8.67-11.57-16.43-.87-26.17,19.64-40.61,20.77-14.63,35.06-18.71,48.53.42,8.02,11.39,8.01,23.75-7.03,34.33l-11.02-15.65c3.22-2.26,5.47-4.24,6.6-5.95,1.4-1.89,1.35-3.81.06-5.63-3.73-5.3-8.62-2.64-25.4,9.17-16.78,11.81-20.87,15.6-17.44,20.47,2.39,3.39,6.12,3.88,16.9-3.71l-4.04-5.74,10.95-7.71ZM259.03,749.28l-37.25,40.14c-4.99,5.38-4.66,8.3-1.93,10.83,2.73,2.53,5.67,2.65,10.66-2.73l37.25-40.14,14.5,13.45-33.85,36.47c-14.46,15.59-25.51,14.04-37.67,2.76-12.16-11.28-14.52-22.18-.06-37.77l33.85-36.47,14.5,13.45ZM311.1,790.79l21.35,12.77-23.09,74.65-18.07-10.81,5.09-12.44-13.51-8.08-8.56,10.37-18.07-10.81,54.85-55.66ZM313.9,810.55l-.18-.11-21.19,24.87,9.49,5.68,11.88-30.43ZM365.17,820.2l29.36,9.75c14.33,4.76,17.09,14.64,13.4,25.74-3.22,9.68-9,14.6-18.01,13.06l-.07.2c8.71,3.79,9.62,10.48,6.44,20.06l-2.05,6.15c-1.24,3.73-2.82,8.47-2.41,10.29.24.98.41,1.81,1.38,2.92l-.34,1.01-19.97-6.64c-.58-4.34,1.77-11.4,2.74-14.32l1.61-4.84c2.72-8.17,1.8-10.83-2.74-12.34l-4.94-1.64-9.59,28.85-18.77-6.24,23.94-72.03ZM373.81,856.9l3.73,1.24c5.35,1.78,9.01-.82,10.72-5.96,1.98-5.95.46-9.15-5.19-11.02l-3.63-1.21-5.63,16.95ZM450.42,842.82l24.74,2.6,10.46,77.42-20.93-2.2-.62-13.43-15.65-1.65-3.4,13-20.93-2.2,26.33-73.55ZM461.27,859.56l-.21-.02-8.76,31.47,10.99,1.16-2.02-32.6ZM512,846.87l21.98-2.4,17.75,45.12.21-.02-5.07-46.5,18.39-2,8.23,75.46-21.56,2.35-18.19-45.18-.21.02,5.08,46.61-18.39,2.01-8.23-75.46ZM603.91,848.09l-14.16,4.6-5.19-15.98,47.12-15.31,5.19,15.98-14.16,4.6,18.26,56.22-18.81,6.11-18.27-56.22ZM649.98,813.1l39.28-21.9,7.87,14.12-22.01,12.27,6.32,11.33,20.62-11.49,7.56,13.56-20.62,11.49,7.35,13.19,22.85-12.74,7.87,14.12-40.12,22.37-36.97-66.31ZM708.64,777.58l34.24-29.16,10.48,12.3-19.18,16.34,8.41,9.87,17.97-15.31,10.06,11.82-17.97,15.31,9.79,11.49,19.91-16.96,10.48,12.3-34.97,29.78-49.23-57.79ZM759.38,731.63l17.65-22.64c14.05-18.03,29.03-7.84,44.71,4.38,15.68,12.22,29.22,24.26,15.16,42.29l-17.65,22.64-59.87-46.67ZM820.17,753.95l2.42-3.1c4.71-6.04,2.78-8.75-13.4-21.37-16.18-12.61-19.29-13.82-23.99-7.78l-2.42,3.1,37.4,29.15Z"/><polygon class="cls-12" points="860.16 533.23 836.92 511.43 868.36 506.23 881.87 477.39 896.56 505.65 928.16 509.61 905.81 532.29 911.82 563.57 883.27 549.33 855.43 564.7 860.16 533.23"/><polygon class="cls-12" points="96.76 533.23 73.51 511.43 104.96 506.23 118.47 477.39 133.15 505.65 164.75 509.61 142.41 532.29 148.41 563.57 119.87 549.33 92.02 564.7 96.76 533.23"/></g></g></g></svg>