<?xml version="1.0" encoding="UTF-8"?><svg id="Ebene_2" xmlns="http://www.w3.org/2000/svg" xmlns:xlink="http://www.w3.org/1999/xlink" viewBox="0 0 1000 1293.81"><defs><style>.cls-1{fill:url(#linear-gradient-11);}.cls-1,.cls-2,.cls-3,.cls-4,.cls-5,.cls-6,.cls-7,.cls-8,.cls-9,.cls-10,.cls-11,.cls-12,.cls-13,.cls-14,.cls-15,.cls-16{stroke-width:0px;}.cls-2{fill:url(#linear-gradient-12);}.cls-3{fill:url(#linear-gradient-10);}.cls-4{fill:url(#linear-gradient);}.cls-4,.cls-5,.cls-6,.cls-7,.cls-8,.cls-9{fill-rule:evenodd;}.cls-5{fill:url(#linear-gradient-3);}.cls-6{fill:url(#linear-gradient-2);}.cls-7{fill:url(#linear-gradient-4);}.cls-8{fill:url(#linear-gradient-14);}.cls-9{fill:url(#linear-gradient-13);}.cls-10{fill:url(#linear-gradient-8);}.cls-11{fill:url(#linear-gradient-9);}.cls-12{fill:url(#linear-gradient-7);}.cls-13{fill:url(#linear-gradient-5);}.cls-14{fill:url(#linear-gradient-6);}.cls-16{fill:#fff;}</style><linearGradient id="linear-gradient" x1="8609.67" y1="639.97" x2="8834.21" y2="1193.96" gradientTransform="translate(9082.42) rotate(-180) scale(1 -1)" gradientUnits="userSpaceOnUse"><stop offset="0" stop-color="#500800"/><stop offset=".33" stop-color="#d80912"/><stop offset=".37" stop-color="#b8090d"/><stop offset=".42" stop-color="#990a08"/><stop offset=".47" stop-color="#800b04"/><stop offset=".52" stop-color="#6f0b02"/><stop offset=".58" stop-color="#650b00"/><stop offset=".66" stop-color="#620c00"/><stop offset=".83" stop-color="#e20613"/><stop offset="1" stop-color="#5b0a00"/></linearGradient><linearGradient id="linear-gradient-2" x1="8551.32" y1="545.74" x2="8867.48" y2="1172.49" gradientTransform="translate(9082.42) rotate(-180) scale(1 -1)" gradientUnits="userSpaceOnUse"><stop offset="0" stop-color="#ffec99"/><stop offset=".21" stop-color="#fff6aa"/><stop offset=".27" stop-color="#eed47a"/><stop offset=".33" stop-color="#d6a437"/><stop offset=".51" stop-color="#ffef96"/><stop offset=".54" stop-color="#f8e287"/><stop offset=".58" stop-color="#e9c567"/><stop offset=".61" stop-color="#c7a254"/><stop offset=".64" stop-color="#aa8543"/><stop offset=".68" stop-color="#916c36"/><stop offset=".72" stop-color="#7f592b"/><stop offset=".76" stop-color="#714c24"/><stop offset=".82" stop-color="#6a4420"/><stop offset=".94" stop-color="#68421f"/><stop offset="1" stop-color="#ffef9d"/></linearGradient><linearGradient id="linear-gradient-3" x1="527.25" y1="639.96" x2="751.79" y2="1193.95" gradientTransform="matrix(1,0,0,1,0,0)" xlink:href="#linear-gradient"/><linearGradient id="linear-gradient-4" x1="468.9" y1="545.74" x2="785.07" y2="1172.49" gradientTransform="matrix(1,0,0,1,0,0)" xlink:href="#linear-gradient-2"/><linearGradient id="linear-gradient-5" x1="500" y1="1000.01" x2="500" y2="498.04" gradientUnits="userSpaceOnUse"><stop offset="0" stop-color="#ffec99"/><stop offset=".13" stop-color="#fff6aa"/><stop offset=".18" stop-color="#eed47a"/><stop offset=".24" stop-color="#d6a437"/><stop offset=".36" stop-color="#ffef96"/><stop offset=".41" stop-color="#f8e287"/><stop offset=".49" stop-color="#e9c567"/><stop offset=".52" stop-color="#d6b25c"/><stop offset=".59" stop-color="#af8a46"/><stop offset=".65" stop-color="#906a35"/><stop offset=".72" stop-color="#795428"/><stop offset=".78" stop-color="#6c4621"/><stop offset=".83" stop-color="#68421f"/><stop offset="1" stop-color="#ffef9d"/></linearGradient><linearGradient id="linear-gradient-6" x1="500" y1="498.04" x2="500" y2="0" gradientUnits="userSpaceOnUse"><stop offset="0" stop-color="#fdf0c0"/><stop offset=".66" stop-color="#f7e190"/><stop offset=".87" stop-color="#cf9e57"/><stop offset="1" stop-color="#bb8a42"/></linearGradient><linearGradient id="linear-gradient-7" x1="177.13" y1="177.13" x2="822.87" y2="822.88" xlink:href="#linear-gradient-5"/><linearGradient id="linear-gradient-8" x1="500" y1="949.26" x2="500" y2="500" gradientTransform="matrix(1,0,0,1,0,0)" xlink:href="#linear-gradient-2"/><linearGradient id="linear-gradient-9" y1="500" x2="500" y2="50.74" xlink:href="#linear-gradient-6"/><linearGradient id="linear-gradient-10" x1="219.89" y1="780.1" x2="780.1" y2="219.89" xlink:href="#linear-gradient-5"/><linearGradient id="linear-gradient-11" x1="500" y1="890.16" x2="500" y2="497.99" gradientUnits="userSpaceOnUse"><stop offset="0" stop-color="#795228"/><stop offset=".04" stop-color="#7b552a"/><stop offset=".08" stop-color="#835e32"/><stop offset=".11" stop-color="#916f3f"/><stop offset=".14" stop-color="#a48651"/><stop offset=".16" stop-color="#bca469"/><stop offset=".19" stop-color="#dac986"/><stop offset=".21" stop-color="#fdf4a8"/><stop offset=".21" stop-color="#fff6aa"/><stop offset=".27" stop-color="#eed47a"/><stop offset=".33" stop-color="#d6a437"/><stop offset=".51" stop-color="#ffef96"/><stop offset=".54" stop-color="#f8e287"/><stop offset=".58" stop-color="#e9c567"/><stop offset=".6" stop-color="#dab65e"/><stop offset=".64" stop-color="#b7924b"/><stop offset=".69" stop-color="#9a753b"/><stop offset=".74" stop-color="#845e2e"/><stop offset=".79" stop-color="#744e25"/><stop offset=".85" stop-color="#6a4420"/><stop offset=".94" stop-color="#68421f"/><stop offset="1" stop-color="#ffef9d"/></linearGradient><linearGradient id="linear-gradient-12" y1="497.99" x2="500" y2="109.84" xlink:href="#linear-gradient-6"/><linearGradient id="linear-gradient-13" x1="508.37" y1="393.07" x2="509.51" y2="620.31" xlink:href="#linear-gradient-5"/><linearGradient id="linear-gradient-14" x1="500" y1="941.37" x2="500" y2="58.64" gradientUnits="userSpaceOnUse"><stop offset="0" stop-color="#ffef9d"/><stop offset=".06" stop-color="#68421f"/><stop offset=".18" stop-color="#6a4420"/><stop offset=".24" stop-color="#714c24"/><stop offset=".28" stop-color="#7f592b"/><stop offset=".32" stop-color="#916c36"/><stop offset=".36" stop-color="#aa8543"/><stop offset=".39" stop-color="#c7a254"/><stop offset=".42" stop-color="#e9c567"/><stop offset=".46" stop-color="#f8e287"/><stop offset=".49" stop-color="#ffef96"/><stop offset=".67" stop-color="#d6a437"/><stop offset=".73" stop-color="#eed47a"/><stop offset=".79" stop-color="#fff6aa"/><stop offset="1" stop-color="#ffec99"/></linearGradient></defs><g id="Layer_1"><path class="cls-4" d="M497.73,204.23l111.85,124.7,167.44-4.35c-139.22,323.07-278.44,646.15-417.65,969.23l-111.84-124.7-167.46,4.35C219.3,850.4,358.51,527.29,497.73,204.23"/><path class="cls-6" d="M330,1261.06l9.4,10.48,407.72-946.19-14.08.36-403.05,935.34ZM109.98,1172.67l14.08-.37L527.1,236.97l-9.4-10.47L109.98,1172.67Z"/><path class="cls-5" d="M502.27,204.23l-111.84,124.7-167.44-4.35c139.21,323.07,278.43,646.15,417.64,969.23l111.84-124.7,167.46,4.35c-139.22-323.06-278.44-646.17-417.66-969.22"/><path class="cls-7" d="M266.95,325.71l-14.08-.36,407.72,946.19,9.41-10.48L266.95,325.71ZM482.3,226.49l-9.4,10.47,403.05,935.33,14.07.37L482.3,226.49Z"/><polygon class="cls-13" points="998.38 498.04 1.62 498.04 0 500 20.66 525.13 2.74 552.27 25.91 575.1 10.93 603.96 36.36 624.24 24.47 654.51 51.88 672.02 43.23 703.37 72.31 717.92 66.99 750 97.44 761.43 95.5 793.9 126.97 802.07 128.43 834.57 160.6 839.42 165.44 871.58 197.93 873.04 206.12 904.51 238.58 902.57 250 933.01 282.09 927.69 296.63 956.77 327.98 948.13 345.5 975.53 375.77 963.65 396.05 989.08 424.91 974.09 447.73 997.26 474.88 979.35 500 1000.01 525.12 979.35 552.27 997.26 575.09 974.09 603.96 989.08 624.24 963.65 654.51 975.53 672.03 948.13 703.37 956.77 717.92 927.69 750.01 933.01 761.43 902.57 793.9 904.51 802.07 873.04 834.56 871.58 839.41 839.42 871.58 834.57 873.04 802.07 904.51 793.9 902.56 761.43 933.02 750 927.68 717.92 956.78 703.37 948.13 672.02 975.53 654.51 963.65 624.24 989.07 603.96 974.1 575.1 997.26 552.27 979.34 525.13 1000 500 998.38 498.04"/><polygon class="cls-14" points="974.09 424.92 989.07 396.05 963.65 375.77 975.53 345.5 948.13 327.99 956.77 296.64 927.69 282.09 933.02 250.01 902.56 238.58 904.51 206.11 873.04 197.93 871.58 165.44 839.41 160.59 834.56 128.43 802.07 126.98 793.89 95.5 761.43 97.44 750.01 66.99 717.92 72.32 703.37 43.24 672.03 51.89 654.51 24.48 624.24 36.36 603.96 10.94 575.09 25.91 552.27 2.74 525.12 20.67 500 0 474.88 20.67 447.73 2.74 424.91 25.91 396.05 10.94 375.77 36.36 345.5 24.48 327.98 51.89 296.63 43.24 282.09 72.32 250 66.99 238.58 97.44 206.12 95.5 197.92 126.98 165.44 128.43 160.59 160.59 128.43 165.44 126.97 197.93 95.5 206.11 97.44 238.58 66.99 250.01 72.32 282.09 43.23 296.64 51.88 327.99 24.47 345.5 36.36 375.77 10.93 396.05 25.91 424.92 2.74 447.74 20.66 474.88 1.62 498.04 998.38 498.04 979.34 474.88 997.26 447.74 974.09 424.92"/><path class="cls-12" d="M956.61,500c0,252.18-204.43,456.62-456.61,456.62S43.39,752.18,43.39,500,247.82,43.39,500,43.39s456.61,204.42,456.61,456.61Z"/><path class="cls-10" d="M500,949.26c248.12,0,449.27-201.14,449.27-449.25H50.74c0,248.12,201.15,449.25,449.26,449.25Z"/><path class="cls-11" d="M500,50.74c-248.12,0-449.26,201.14-449.26,449.27h898.53c0-248.12-201.14-449.27-449.27-449.27Z"/><path class="cls-3" d="M896.12,500c0,218.77-177.34,396.12-396.13,396.12S103.88,718.78,103.88,500,281.21,103.87,500,103.87s396.13,177.34,396.13,396.13Z"/><path class="cls-1" d="M109.87,497.99c0,.67-.02,1.34-.02,2.02,0,215.13,175.03,390.16,390.16,390.16s390.16-175.03,390.16-390.16c0-.68-.02-1.34-.02-2.02H109.87Z"/><path class="cls-2" d="M109.87,497.99h780.27c-1.09-214.21-175.67-388.15-390.14-388.15S110.96,283.77,109.87,497.99Z"/><path class="cls-16" d="M875,498.16c0,207.11-167.89,375-375,375S125,705.27,125,498.16,292.88,123.16,500,123.16s375,167.89,375,375Z"/><path class="cls-15" d="M725,498.82c0,124.27-100.73,225-225,225s-225-100.73-225-225,100.73-225,225-225,225,100.73,225,225Z"/><path class="cls-9" d="M410.62,431.37h136.77c8.44,0,15.35,6.91,15.35,15.35v19.15l59.78-21.36v98.71l-59.78-20.18v27.9c0,8.44-6.91,15.33-15.35,15.33h-136.77c-8.44,0-15.35-6.89-15.35-15.33v-104.23c0-8.44,6.91-15.35,15.35-15.35h0Z"/><path class="cls-8" d="M474.88,94.35l-1.83-34.92c2.56-.14,5.14-.28,7.7-.39l1.83,34.91c-2.57.12-5.13.25-7.71.4M460.73,95.46l-3.05-34.84c2.56-.24,5.12-.48,7.69-.68l3.05,34.83c-2.56.21-5.13.44-7.69.69ZM446.63,97.04l-4.26-34.71c2.54-.33,5.11-.62,7.66-.91l4.27,34.71c-2.57.28-5.12.58-7.67.91ZM432.6,99.16l-5.48-34.55c2.54-.41,5.08-.83,7.63-1.2l5.47,34.54c-2.55.39-5.09.79-7.63,1.22ZM418.65,101.71l-6.68-34.33c2.52-.51,5.04-.98,7.58-1.46l6.68,34.34c-2.54.46-5.07.93-7.58,1.45ZM404.81,104.79l-7.88-34.07c2.49-.61,5.01-1.18,7.53-1.72l7.86,34.07c-2.51.56-5.03,1.14-7.51,1.73ZM391.06,108.35l-9.06-33.78c2.49-.69,4.96-1.37,7.46-2.02l9.05,33.78c-2.49.65-4.98,1.33-7.46,2.02ZM377.45,112.38l-10.23-33.45c2.45-.76,4.92-1.5,7.38-2.23l10.24,33.44c-2.48.73-4.94,1.47-7.39,2.24ZM364,116.91l-11.38-33.08c2.42-.86,4.84-1.7,7.29-2.52l11.39,33.08c-2.45.82-4.88,1.66-7.3,2.52ZM350.71,121.86l-12.53-32.65c2.39-.94,4.8-1.85,7.21-2.75l12.54,32.64c-2.42.9-4.82,1.82-7.21,2.75ZM337.62,127.33l-13.67-32.19c2.36-1.03,4.73-2.04,7.11-3.03l13.67,32.2c-2.38.98-4.76,2-7.11,3.02ZM324.71,133.22l-14.77-31.69c2.31-1.11,4.64-2.19,6.98-3.27l14.78,31.7c-2.34,1.07-4.69,2.15-6.99,3.26ZM312.03,139.58l-15.87-31.16c2.27-1.19,4.57-2.36,6.87-3.51l15.88,31.17c-2.31,1.15-4.6,2.31-6.88,3.51ZM299.57,146.37l-16.96-30.58c2.24-1.27,4.49-2.54,6.75-3.78l16.96,30.59c-2.26,1.23-4.51,2.49-6.74,3.76ZM287.35,153.59l-18.02-29.98c2.2-1.35,4.4-2.65,6.62-3.96l18.02,29.96c-2.22,1.3-4.43,2.63-6.62,3.97ZM275.4,161.24l-19.04-29.32c2.14-1.42,4.29-2.85,6.46-4.23l19.06,29.33c-2.18,1.39-4.33,2.81-6.47,4.22ZM263.72,169.29l-20.07-28.65c2.1-1.5,4.22-2.96,6.34-4.41l20.05,28.65c-2.12,1.45-4.24,2.91-6.32,4.41ZM252.34,177.76l-21.04-27.93c2.04-1.57,4.08-3.12,6.15-4.66l21.05,27.93c-2.07,1.53-4.12,3.08-6.15,4.66ZM241.24,186.59l-22.01-27.18c1.97-1.64,3.99-3.24,6.01-4.84l22,27.17c-2.02,1.6-4.03,3.21-6,4.85ZM230.47,195.83l-22.94-26.39c1.92-1.7,3.86-3.4,5.82-5.06l22.94,26.38c-1.96,1.67-3.89,3.37-5.82,5.07ZM220.01,205.41l-23.85-25.58c1.86-1.76,3.76-3.51,5.65-5.26l23.85,25.57c-1.9,1.74-3.79,3.48-5.65,5.26ZM209.91,215.38l-24.72-24.73c1.79-1.83,3.61-3.66,5.44-5.46l24.74,24.74c-1.84,1.8-3.66,3.61-5.46,5.45ZM200.14,225.67l-25.57-23.86c1.74-1.9,3.5-3.79,5.27-5.66l25.57,23.86c-1.78,1.87-3.53,3.75-5.27,5.65ZM190.75,236.3l-26.38-22.93c1.66-1.95,3.35-3.89,5.07-5.82l26.39,22.94c-1.71,1.93-3.4,3.87-5.08,5.82ZM181.73,247.24l-27.17-21.99c1.61-2.02,3.2-4.04,4.85-6.01l27.18,22c-1.64,1.98-3.24,4-4.85,6ZM173.09,258.5l-27.93-21.04c1.53-2.08,3.09-4.12,4.66-6.16l27.92,21.04c-1.57,2.04-3.12,4.07-4.66,6.16ZM164.86,270.06l-28.64-20.06c1.46-2.12,2.92-4.23,4.41-6.32l28.65,20.05c-1.49,2.09-2.96,4.21-4.42,6.34ZM157.01,281.87l-29.33-19.04c1.39-2.17,2.81-4.32,4.23-6.45l29.33,19.05c-1.42,2.13-2.84,4.27-4.23,6.45ZM149.61,293.98l-29.98-18.02c1.31-2.22,2.63-4.43,3.98-6.62l29.98,18.02c-1.35,2.18-2.67,4.4-3.98,6.62ZM142.6,306.3l-30.59-16.94c1.25-2.28,2.5-4.51,3.77-6.74l30.59,16.96c-1.28,2.23-2.54,4.47-3.78,6.73ZM136.07,318.91l-31.16-15.88c1.14-2.31,2.31-4.59,3.5-6.87l31.16,15.87c-1.19,2.28-2.36,4.58-3.51,6.87ZM129.95,331.7l-31.69-14.79c1.06-2.34,2.16-4.67,3.26-6.98l31.69,14.77c-1.11,2.33-2.2,4.67-3.26,7ZM124.3,344.73l-32.19-13.67c.99-2.39,2-4.75,3.02-7.11l32.2,13.68c-1.02,2.34-2.04,4.72-3.03,7.1ZM119.11,357.93l-32.65-12.54c.9-2.41,1.8-4.82,2.74-7.21l32.66,12.53c-.94,2.4-1.84,4.8-2.74,7.22ZM114.38,371.3l-33.08-11.37c.82-2.45,1.68-4.88,2.53-7.3l33.07,11.39c-.86,2.42-1.7,4.84-2.52,7.28ZM110.14,384.85l-33.45-10.24c.72-2.47,1.46-4.93,2.23-7.38l33.45,10.22c-.77,2.46-1.52,4.91-2.24,7.39ZM106.33,398.52l-33.79-9.06c.65-2.49,1.34-4.96,2.03-7.44l33.77,9.05c-.68,2.48-1.37,4.94-2.01,7.44ZM103.07,412.33l-34.08-7.86c.55-2.51,1.14-5.02,1.73-7.53l34.08,7.87c-.6,2.5-1.17,5-1.72,7.52ZM100.25,426.24l-34.34-6.69c.46-2.52.95-5.05,1.45-7.57l34.33,6.67c-.51,2.51-.99,5.05-1.45,7.58ZM97.94,440.23l-34.54-5.48c.37-2.55.79-5.07,1.2-7.61l34.55,5.48c-.42,2.53-.84,5.06-1.21,7.61ZM96.13,454.31l-34.71-4.27c.3-2.56.58-5.11.91-7.66l34.72,4.27c-.34,2.54-.64,5.1-.92,7.67ZM94.77,468.43l-34.84-3.05c.2-2.57.44-5.13.68-7.69l34.83,3.05c-.25,2.56-.48,5.12-.68,7.69ZM93.95,482.6l-34.92-1.84c.1-2.57.24-5.14.39-7.69l34.92,1.82c-.15,2.56-.28,5.13-.39,7.71ZM93.59,496.77l-34.96-.61c.02-2.57.04-5.15.11-7.72l34.97.62c-.07,2.57-.09,5.13-.11,7.71ZM93.7,510.96l-34.97.6c-.06-2.56-.09-5.13-.11-7.7l34.96-.62c.02,2.58.03,5.15.11,7.72ZM94.34,525.13l-34.92,1.83c-.15-2.55-.29-5.13-.39-7.7l34.92-1.84c.11,2.57.24,5.16.39,7.72ZM95.45,539.28l-34.83,3.05c-.24-2.56-.47-5.12-.68-7.69l34.84-3.04c.19,2.56.43,5.12.68,7.68ZM97.04,553.37l-34.72,4.26c-.33-2.54-.62-5.09-.91-7.66l34.71-4.26c.29,2.55.58,5.11.92,7.66ZM99.15,567.39l-34.55,5.47c-.41-2.52-.82-5.06-1.2-7.61l34.54-5.48c.38,2.55.78,5.09,1.21,7.62ZM101.7,581.36l-34.33,6.66c-.51-2.51-.98-5.04-1.45-7.57l34.34-6.67c.46,2.52.93,5.06,1.45,7.58ZM104.79,595.21l-34.08,7.87c-.6-2.51-1.17-5.01-1.73-7.53l34.08-7.86c.56,2.52,1.13,5.03,1.72,7.52ZM108.34,608.94l-33.77,9.06c-.68-2.48-1.37-4.95-2.03-7.45l33.79-9.06c.65,2.5,1.33,4.98,2.01,7.45ZM112.38,622.55l-33.45,10.23c-.77-2.46-1.52-4.92-2.23-7.39l33.45-10.23c.72,2.47,1.46,4.93,2.24,7.38ZM116.89,636l-33.07,11.39c-.85-2.42-1.71-4.85-2.53-7.29l33.08-11.39c.81,2.45,1.66,4.87,2.52,7.29ZM121.85,649.3l-32.65,12.53c-.94-2.4-1.84-4.8-2.75-7.22l32.66-12.52c.91,2.41,1.8,4.82,2.74,7.21ZM127.33,662.39l-32.2,13.67c-1.03-2.36-2.03-4.73-3.02-7.1l32.19-13.67c.99,2.37,2,4.74,3.03,7.1ZM133.21,675.3l-31.69,14.78c-1.11-2.31-2.21-4.64-3.26-6.98l31.69-14.79c1.06,2.33,2.15,4.67,3.26,6.99ZM139.58,687.98l-31.16,15.89c-1.19-2.28-2.36-4.58-3.52-6.88l31.17-15.89c1.15,2.31,2.31,4.61,3.51,6.88ZM146.37,700.44l-30.6,16.95c-1.26-2.23-2.53-4.47-3.76-6.74l30.59-16.96c1.23,2.27,2.5,4.51,3.78,6.74ZM153.59,712.66l-29.98,18.01c-1.35-2.19-2.66-4.4-3.98-6.63l29.98-18.01c1.31,2.23,2.62,4.45,3.98,6.63ZM161.24,724.61l-29.33,19.04c-1.42-2.14-2.83-4.3-4.23-6.46l29.33-19.05c1.39,2.17,2.81,4.32,4.23,6.47ZM169.28,736.3l-28.65,20.05c-1.48-2.08-2.95-4.21-4.41-6.33l28.64-20.06c1.45,2.12,2.93,4.24,4.42,6.34ZM177.75,747.67l-27.92,21.04c-1.56-2.03-3.13-4.07-4.66-6.15l27.93-21.05c1.54,2.08,3.08,4.11,4.65,6.16ZM186.58,758.77l-27.18,22.02c-1.64-1.99-3.24-4-4.84-6.02l27.17-22.01c1.6,2.02,3.21,4.02,4.85,6.01ZM195.83,769.54l-26.39,22.93c-1.72-1.91-3.41-3.85-5.08-5.82l26.39-22.94c1.68,1.96,3.37,3.89,5.08,5.83ZM205.41,780l-25.58,23.84c-1.77-1.85-3.52-3.75-5.26-5.65l25.57-23.84c1.73,1.9,3.49,3.79,5.27,5.65ZM215.37,790.09l-24.73,24.72c-1.83-1.79-3.65-3.61-5.46-5.46l24.73-24.72c1.8,1.84,3.62,3.65,5.46,5.46ZM225.65,799.86l-23.83,25.57c-1.9-1.73-3.79-3.49-5.65-5.26l23.85-25.57c1.86,1.77,3.75,3.52,5.64,5.25ZM236.29,809.25l-22.94,26.39c-1.96-1.67-3.89-3.37-5.82-5.06l22.94-26.39c1.93,1.71,3.86,3.41,5.82,5.07ZM247.23,818.28l-22,27.17c-2.01-1.6-4.03-3.2-6-4.83l22.01-27.19c1.97,1.65,3.98,3.25,5.99,4.85ZM258.49,826.92l-21.05,27.92c-2.06-1.53-4.11-3.09-6.15-4.66l21.05-27.92c2.04,1.57,4.08,3.13,6.15,4.66ZM270.05,835.14l-20.05,28.64c-2.12-1.44-4.24-2.92-6.34-4.41l20.07-28.64c2.08,1.49,4.2,2.96,6.32,4.41ZM281.86,842.98l-19.04,29.35c-2.17-1.39-4.32-2.81-6.46-4.23l19.04-29.33c2.13,1.42,4.29,2.83,6.45,4.21ZM293.96,850.4l-18,29.97c-2.21-1.3-4.43-2.62-6.62-3.98l18.02-29.97c2.18,1.34,4.39,2.67,6.6,3.98ZM306.31,857.41l-16.96,30.59c-2.26-1.23-4.51-2.5-6.75-3.78l16.96-30.57c2.23,1.27,4.47,2.53,6.74,3.76ZM318.9,863.95l-15.88,31.15c-2.29-1.15-4.6-2.31-6.87-3.5l15.87-31.16c2.28,1.18,4.57,2.35,6.88,3.51ZM331.7,870.06l-14.78,31.69c-2.33-1.06-4.67-2.15-6.99-3.25l14.78-31.7c2.31,1.11,4.65,2.18,6.99,3.26ZM344.73,875.71l-13.67,32.2c-2.38-1-4.75-2.01-7.11-3.04l13.67-32.19c2.36,1.03,4.73,2.04,7.11,3.03ZM357.92,880.91l-12.54,32.64c-2.41-.9-4.82-1.79-7.21-2.74l12.53-32.65c2.39.93,4.8,1.86,7.22,2.76ZM371.3,885.64l-11.39,33.07c-2.45-.81-4.86-1.65-7.29-2.52l11.38-33.07c2.42.86,4.85,1.71,7.3,2.53ZM384.84,889.89l-10.24,33.44c-2.46-.73-4.93-1.47-7.38-2.24l10.22-33.46c2.46.77,4.93,1.51,7.4,2.25ZM398.51,893.68l-9.04,33.77c-2.5-.63-4.98-1.33-7.46-2.02l9.06-33.77c2.48.7,4.95,1.38,7.45,2.02ZM412.32,896.96l-7.87,34.06c-2.51-.55-5.03-1.12-7.53-1.72l7.88-34.08c2.49.61,5.01,1.18,7.52,1.74ZM426.23,899.76l-6.68,34.33c-2.53-.47-5.06-.94-7.58-1.44l6.67-34.33c2.52.51,5.05.99,7.58,1.45ZM440.22,902.07l-5.47,34.56c-2.55-.39-5.08-.81-7.63-1.22l5.48-34.54c2.54.42,5.08.83,7.62,1.2ZM454.29,903.88l-4.26,34.72c-2.55-.3-5.12-.59-7.66-.92l4.25-34.71c2.55.33,5.1.63,7.66.9ZM468.42,905.25l-3.05,34.83c-2.57-.2-5.12-.43-7.69-.68l3.05-34.83c2.56.24,5.11.48,7.69.68ZM482.58,906.07l-1.83,34.91c-2.57-.1-5.14-.24-7.7-.39l1.82-34.93c2.57.16,5.14.3,7.72.41ZM496.76,906.41l-.6,34.97c-2.58-.02-5.15-.03-7.71-.09l.61-34.98c2.56.08,5.14.09,7.7.1ZM510.95,906.3l.61,34.98c-2.56.07-5.15.08-7.71.09l-.62-34.97c2.58-.01,5.16-.03,7.72-.1ZM525.12,905.66l1.84,34.93c-2.57.15-5.13.28-7.72.4l-1.83-34.91c2.57-.12,5.15-.25,7.71-.41ZM539.27,904.57l3.05,34.83c-2.56.26-5.12.48-7.69.68l-3.05-34.83c2.57-.2,5.13-.44,7.69-.68ZM553.37,902.97l4.25,34.71c-2.54.34-5.11.63-7.67.92l-4.25-34.72c2.56-.27,5.12-.57,7.67-.9ZM567.41,900.87l5.47,34.54c-2.54.42-5.07.84-7.62,1.22l-5.47-34.56c2.55-.37,5.08-.79,7.63-1.2ZM581.36,898.31l6.67,34.33c-2.52.51-5.05.98-7.58,1.44l-6.66-34.33c2.52-.46,5.06-.94,7.58-1.45ZM595.19,895.22l7.88,34.08c-2.51.6-5.01,1.17-7.52,1.72l-7.87-34.06c2.52-.56,5.02-1.14,7.51-1.74ZM608.94,891.67l9.06,33.77c-2.49.69-4.96,1.39-7.45,2.02l-9.05-33.77c2.49-.64,4.96-1.32,7.45-2.02ZM622.54,887.63l10.23,33.46c-2.45.77-4.92,1.49-7.38,2.24l-10.23-33.44c2.46-.74,4.93-1.48,7.38-2.25ZM635.99,883.11l11.39,33.07c-2.43.86-4.84,1.71-7.3,2.52l-11.38-33.07c2.44-.82,4.87-1.66,7.29-2.53ZM649.29,878.16l12.54,32.65c-2.39.95-4.82,1.84-7.23,2.74l-12.53-32.64c2.42-.9,4.82-1.8,7.21-2.76ZM662.38,872.68l13.67,32.19c-2.35,1.04-4.72,2.05-7.11,3.04l-13.66-32.2c2.39-1,4.75-2,7.1-3.03ZM675.29,866.8l14.78,31.7c-2.32,1.1-4.65,2.19-6.99,3.25l-14.78-31.69c2.34-1.08,4.68-2.14,6.99-3.26ZM687.97,860.44l15.89,31.16c-2.28,1.2-4.57,2.35-6.87,3.5l-15.88-31.15c2.31-1.16,4.6-2.32,6.87-3.51ZM700.43,853.64l16.95,30.57c-2.23,1.28-4.47,2.55-6.73,3.78l-16.96-30.59c2.26-1.23,4.51-2.49,6.74-3.76ZM712.64,846.43l18.03,29.98c-2.2,1.34-4.4,2.66-6.62,3.96l-18-29.97c2.21-1.31,4.42-2.64,6.59-3.97ZM724.6,838.77l19.04,29.33c-2.14,1.42-4.29,2.84-6.46,4.23l-19.05-29.33c2.17-1.39,4.31-2.79,6.46-4.22ZM736.28,830.73l20.06,28.64c-2.09,1.49-4.2,2.97-6.32,4.41l-20.06-28.64c2.13-1.46,4.24-2.93,6.32-4.41ZM747.65,822.25l21.06,27.92c-2.04,1.57-4.09,3.13-6.16,4.66l-21.05-27.92c2.07-1.54,4.12-3.08,6.14-4.66ZM758.77,813.43l22.01,27.19c-1.99,1.63-4,3.23-6.02,4.83l-21.99-27.17c2-1.61,4.02-3.2,6-4.85ZM769.53,804.18l22.93,26.39c-1.92,1.7-3.85,3.4-5.81,5.06l-22.94-26.39c1.96-1.66,3.89-3.36,5.82-5.07ZM779.99,794.61l23.84,25.57c-1.87,1.76-3.76,3.52-5.64,5.26l-23.84-25.57c1.89-1.73,3.78-3.49,5.64-5.25ZM790.09,784.64l24.72,24.71c-1.81,1.84-3.62,3.66-5.46,5.46l-24.73-24.72c1.83-1.81,3.66-3.62,5.46-5.45ZM799.86,774.35l25.58,23.86c-1.74,1.9-3.5,3.78-5.27,5.64l-25.56-23.84c1.77-1.87,3.51-3.75,5.26-5.65ZM809.25,763.71l26.4,22.94c-1.68,1.96-3.37,3.9-5.08,5.82l-26.39-22.93c1.7-1.93,3.4-3.87,5.07-5.83ZM818.27,752.77l27.17,22.01c-1.6,2.01-3.21,4.03-4.85,6.02l-27.17-22.02c1.64-1.99,3.24-3.98,4.85-6.01ZM826.9,741.52l27.92,21.04c-1.52,2.08-3.08,4.12-4.64,6.15l-27.93-21.04c1.57-2.04,3.12-4.08,4.65-6.15ZM835.14,729.96l28.64,20.06c-1.46,2.12-2.93,4.24-4.41,6.33l-28.65-20.05c1.5-2.09,2.96-4.21,4.42-6.34ZM842.98,718.16l29.33,19.03c-1.39,2.17-2.81,4.32-4.23,6.46l-29.33-19.06c1.43-2.13,2.84-4.28,4.22-6.43ZM850.39,706.04l29.97,18c-1.31,2.24-2.63,4.44-3.97,6.63l-29.97-18.01c1.34-2.18,2.66-4.39,3.98-6.62ZM857.4,693.71l30.58,16.95c-1.22,2.27-2.5,4.51-3.77,6.74l-30.58-16.95c1.28-2.24,2.54-4.47,3.77-6.73ZM863.93,681.1l31.16,15.88c-1.14,2.3-2.31,4.6-3.5,6.88l-31.16-15.89c1.19-2.27,2.36-4.58,3.51-6.88ZM870.05,668.31l31.7,14.79c-1.07,2.34-2.16,4.67-3.27,6.98l-31.7-14.77c1.11-2.32,2.19-4.66,3.26-7ZM875.7,655.29l32.19,13.67c-.98,2.37-1.99,4.74-3.01,7.1l-32.2-13.67c1.03-2.35,2.05-4.71,3.03-7.09ZM880.9,642.09l32.65,12.52c-.9,2.42-1.8,4.82-2.75,7.22l-32.65-12.53c.93-2.39,1.84-4.8,2.75-7.21ZM885.62,628.71l33.06,11.39c-.8,2.44-1.65,4.87-2.51,7.3l-33.07-11.4c.85-2.42,1.71-4.84,2.52-7.29ZM889.86,615.17l33.46,10.23c-.73,2.47-1.47,4.93-2.26,7.38l-33.45-10.22c.79-2.45,1.52-4.91,2.24-7.38ZM893.67,601.49l33.79,9.06c-.65,2.5-1.32,4.97-2.03,7.45l-33.77-9.06c.68-2.47,1.35-4.94,2.01-7.45ZM896.94,587.69l34.07,7.86c-.56,2.53-1.13,5.03-1.72,7.53l-34.08-7.87c.6-2.5,1.17-5,1.74-7.52ZM899.75,573.78l34.33,6.67c-.47,2.52-.94,5.06-1.47,7.57l-34.32-6.66c.52-2.52,1-5.04,1.46-7.58ZM902.06,559.78l34.54,5.48c-.36,2.55-.79,5.09-1.21,7.61l-34.54-5.47c.42-2.53.84-5.06,1.21-7.62ZM903.88,545.72l34.71,4.26c-.29,2.57-.58,5.11-.91,7.66l-34.72-4.26c.35-2.55.64-5.1.92-7.66ZM905.24,531.59l34.83,3.04c-.2,2.57-.45,5.13-.68,7.69l-34.84-3.05c.24-2.56.48-5.12.68-7.68ZM906.05,517.42l34.92,1.84c-.1,2.57-.24,5.16-.4,7.7l-34.91-1.82c.15-2.57.29-5.14.4-7.72ZM906.41,503.24l34.96.62c-.02,2.57-.03,5.14-.1,7.7l-34.97-.6c.07-2.56.09-5.14.11-7.72ZM906.3,489.06l34.97-.62c.07,2.57.08,5.15.1,7.72l-34.96.61c-.02-2.57-.03-5.14-.11-7.71ZM905.66,474.88l34.91-1.82c.16,2.55.3,5.13.4,7.69l-34.92,1.84c-.1-2.58-.24-5.16-.4-7.71ZM904.55,460.74l34.84-3.05c.24,2.55.48,5.12.68,7.69l-34.83,3.05c-.2-2.57-.43-5.13-.68-7.69ZM902.95,446.64l34.72-4.27c.33,2.56.62,5.11.91,7.66l-34.71,4.27c-.29-2.56-.58-5.13-.92-7.67ZM900.85,432.62l34.54-5.48c.42,2.54.82,5.06,1.21,7.61l-34.54,5.48c-.38-2.55-.79-5.09-1.21-7.61ZM898.29,418.66l34.32-6.67c.53,2.52,1,5.05,1.47,7.57l-34.33,6.67c-.46-2.52-.93-5.06-1.46-7.57ZM895.21,404.81l34.08-7.87c.59,2.5,1.16,5.01,1.72,7.53l-34.07,7.86c-.57-2.52-1.13-5.01-1.74-7.52ZM891.65,391.07l33.77-9.05c.71,2.48,1.38,4.94,2.03,7.44l-33.79,9.07c-.65-2.49-1.33-4.98-2.02-7.45ZM887.62,377.46l33.45-10.23c.78,2.45,1.52,4.92,2.26,7.38l-33.46,10.23c-.73-2.48-1.46-4.94-2.24-7.39ZM883.1,364.02l33.07-11.39c.86,2.42,1.71,4.85,2.51,7.29l-33.06,11.38c-.82-2.44-1.67-4.86-2.52-7.28ZM878.15,350.73l32.65-12.54c.94,2.39,1.83,4.8,2.75,7.21l-32.65,12.54c-.9-2.42-1.82-4.82-2.75-7.21ZM872.67,337.63l32.19-13.68c1.03,2.36,2.04,4.72,3.02,7.11l-32.19,13.67c-.98-2.39-2-4.75-3.03-7.1ZM866.79,324.71l31.7-14.77c1.1,2.31,2.2,4.64,3.27,6.98l-31.7,14.79c-1.07-2.33-2.15-4.67-3.26-7ZM860.42,312.03l31.16-15.87c1.2,2.27,2.35,4.56,3.5,6.87l-31.16,15.88c-1.15-2.3-2.31-4.6-3.51-6.87ZM853.63,299.58l30.58-16.96c1.27,2.24,2.54,4.46,3.77,6.74l-30.58,16.94c-1.24-2.26-2.5-4.49-3.77-6.73ZM846.41,287.37l29.97-18.02c1.34,2.18,2.66,4.4,3.97,6.62l-29.97,18.02c-1.32-2.22-2.64-4.44-3.98-6.62ZM838.76,275.42l29.33-19.05c1.42,2.13,2.83,4.28,4.23,6.45l-29.33,19.04c-1.39-2.18-2.8-4.32-4.22-6.45ZM830.72,263.72l28.65-20.05c1.48,2.09,2.95,4.2,4.4,6.32l-28.63,20.05c-1.46-2.12-2.92-4.24-4.42-6.33ZM822.25,252.35l27.92-21.04c1.57,2.04,3.13,4.08,4.65,6.15l-27.92,21.05c-1.53-2.08-3.09-4.12-4.65-6.16ZM813.42,241.24l27.17-22c1.64,1.97,3.24,3.99,4.85,6.01l-27.17,21.99c-1.61-2-3.21-4.02-4.85-6ZM804.17,230.48l26.38-22.94c1.71,1.93,3.4,3.87,5.08,5.82l-26.4,22.93c-1.68-1.95-3.37-3.89-5.07-5.82ZM794.6,220.02l25.56-23.86c1.77,1.87,3.52,3.76,5.27,5.66l-25.58,23.86c-1.75-1.91-3.49-3.79-5.26-5.65ZM784.62,209.93l24.73-24.74c1.83,1.8,3.65,3.63,5.46,5.46l-24.72,24.73c-1.81-1.84-3.63-3.65-5.47-5.45ZM774.35,200.15l23.84-25.57c1.89,1.75,3.78,3.5,5.64,5.26l-23.84,25.58c-1.87-1.78-3.76-3.52-5.64-5.26ZM763.71,190.76l22.94-26.38c1.96,1.66,3.89,3.36,5.81,5.06l-22.94,26.39c-1.92-1.71-3.84-3.41-5.81-5.07ZM752.76,181.74l22-27.18c2.02,1.61,4.03,3.21,6.02,4.85l-22.01,27.18c-1.98-1.64-4-3.24-6.01-4.84ZM741.5,173.1l21.05-27.93c2.07,1.54,4.12,3.1,6.16,4.66l-21.06,27.93c-2.04-1.58-4.07-3.13-6.15-4.66ZM729.95,164.88l20.06-28.65c2.12,1.45,4.24,2.91,6.33,4.41l-20.06,28.65c-2.09-1.5-4.21-2.96-6.32-4.41ZM718.14,157.02l19.05-29.33c2.17,1.39,4.32,2.79,6.46,4.23l-19.04,29.32c-2.16-1.41-4.31-2.83-6.46-4.22ZM706.03,149.62l18.01-29.96c2.22,1.31,4.43,2.61,6.61,3.96l-18.02,29.98c-2.18-1.35-4.39-2.67-6.61-3.97ZM693.7,142.61l16.96-30.59c2.25,1.24,4.5,2.5,6.73,3.78l-16.95,30.58c-2.23-1.27-4.47-2.54-6.74-3.76ZM681.1,136.08l15.88-31.17c2.29,1.15,4.59,2.32,6.86,3.51l-15.88,31.16c-2.27-1.19-4.56-2.35-6.87-3.51ZM668.3,129.96l14.78-31.7c2.34,1.07,4.67,2.16,6.99,3.27l-14.78,31.69c-2.31-1.11-4.65-2.19-6.99-3.26ZM655.28,124.31l13.66-32.2c2.38.99,4.75,2.01,7.09,3.03l-13.65,32.19c-2.36-1.02-4.73-2.04-7.1-3.02ZM642.08,119.11l12.53-32.65c2.41.91,4.82,1.81,7.22,2.75l-12.53,32.65c-2.4-.94-4.8-1.85-7.21-2.75ZM628.7,114.37l11.38-33.06c2.45.82,4.87,1.66,7.3,2.52l-11.39,33.08c-2.42-.86-4.85-1.71-7.29-2.54ZM615.16,110.14l10.23-33.45c2.47.73,4.93,1.48,7.38,2.24l-10.23,33.45c-2.45-.77-4.92-1.51-7.38-2.24ZM601.49,106.33l9.06-33.78c2.49.64,4.97,1.33,7.45,2.02l-9.05,33.78c-2.48-.68-4.97-1.37-7.45-2.02ZM587.68,103.07l7.86-34.07c2.53.55,5.02,1.12,7.52,1.72l-7.87,34.07c-2.49-.58-5.01-1.17-7.52-1.73ZM573.77,100.26l6.68-34.34c2.53.48,5.06.95,7.58,1.46l-6.67,34.33c-2.53-.52-5.05-1-7.59-1.45ZM559.77,97.94l5.48-34.54c2.55.37,5.08.79,7.62,1.2l-5.47,34.55c-2.55-.43-5.08-.83-7.64-1.22ZM545.7,96.13l4.25-34.71c2.56.29,5.13.58,7.67.91l-4.26,34.71c-2.54-.33-5.1-.63-7.66-.91ZM531.58,94.77l3.05-34.83c2.57.2,5.13.44,7.69.68l-3.05,34.84c-2.56-.24-5.12-.48-7.69-.69ZM517.41,93.95l1.83-34.91c2.58.11,5.15.25,7.71.39l-1.83,34.92c-2.56-.15-5.13-.29-7.71-.4ZM503.23,93.6l.61-34.96c2.58.02,5.15.04,7.72.11l-.6,34.97c-2.57-.08-5.14-.09-7.72-.11ZM496.16,58.64l.6,34.96c-2.57.02-5.15.03-7.71.11l-.61-34.97c2.57-.06,5.14-.08,7.71-.11Z"/><path class="cls-15" d="M196.54,595.68l6.52,15.85,53.31-21.93,5.34,12.99-53.31,21.93,6.41,15.58-10.79,4.44-18.27-44.42,10.79-4.44Z"/><path class="cls-15" d="M211.63,527.84c9.13-1.78,16.63-1,22.52,2.34,5.89,3.33,9.57,8.83,11.06,16.5,1.48,7.63.15,14.12-4,19.45-4.15,5.33-10.72,8.91-19.71,10.72l-11.64,2.26c-9.35,1.82-17.06,1.07-23.16-2.24-6.09-3.31-9.89-8.81-11.38-16.51-1.47-7.57-.05-14.04,4.25-19.4,4.31-5.36,11.11-8.98,20.42-10.86l11.64-2.26ZM202.91,543.85c-6.14,1.19-10.53,2.95-13.18,5.28-2.65,2.33-3.62,5.33-2.91,9,.71,3.65,2.67,6.06,5.89,7.24,3.22,1.18,7.78,1.24,13.68.15l12.1-2.35c5.95-1.16,10.16-2.9,12.64-5.22,2.47-2.32,3.35-5.34,2.63-9.05-.7-3.58-2.59-5.98-5.69-7.19-3.1-1.21-7.54-1.26-13.35-.17l-11.82,2.3Z"/><path class="cls-15" d="M215.01,501.24l24.37.4-.23,13.99-69.3-1.12.38-23.61c.11-6.85,2.33-12.29,6.64-16.29,4.32-4.01,9.87-5.96,16.66-5.85,6.79.11,12.12,2.21,15.99,6.31,3.87,4.09,5.75,9.71,5.63,16.85l-.15,9.33ZM203.35,501.05l.16-9.61c.04-2.67-.8-4.74-2.52-6.23-1.72-1.49-4.25-2.26-7.58-2.31-3.46-.06-6.22.65-8.29,2.1-2.07,1.46-3.14,3.44-3.22,5.95l-.16,9.76,21.61.35Z"/><path class="cls-15" d="M232.52,415.38l-44.69-25.8,4.55-14.94,60.48,39.32-4.24,13.94-72.09-1.2,4.52-14.85,51.47,3.53Z"/><path class="cls-15" d="M267.84,378.37l-6.04,12.63-62.54-29.89,6.04-12.63,62.54,29.89Z"/><path class="cls-15" d="M271.54,369.7l-57.48-38.74,10.24-15.2c4.52-6.71,10.26-10.62,17.21-11.74,6.95-1.11,14.16.79,21.64,5.71l9.32,6.28c7.55,5.09,12.14,11.08,13.75,17.97,1.62,6.89.06,13.83-4.65,20.83l-10.03,14.88ZM231.55,325.88l38.17,25.73,2.34-3.47c2.61-3.87,3.42-7.28,2.45-10.23-.97-2.95-3.94-6.15-8.88-9.6l-9.99-6.73c-5.37-3.62-9.62-5.39-12.75-5.32-3.13.07-5.96,1.88-8.5,5.41l-2.85,4.22Z"/><path class="cls-15" d="M305.3,280.59l-15.3,15.53,13.09,12.9,18.11-18.38,8.27,8.15-27.93,28.35-49.38-48.65,27.86-28.28,8.31,8.19-18.04,18.31,11.67,11.49,15.3-15.53,8.04,7.92Z"/><path class="cls-15" d="M357.3,244.37c5.26,7.67,7.53,14.87,6.82,21.59-.72,6.73-4.29,12.3-10.73,16.71-6.41,4.4-12.89,5.75-19.44,4.07-6.55-1.69-12.44-6.29-17.68-13.82l-6.71-9.77c-5.39-7.85-7.77-15.23-7.16-22.13.61-6.9,4.15-12.58,10.61-17.01,6.36-4.36,12.86-5.63,19.49-3.82,6.64,1.82,12.66,6.62,18.08,14.41l6.71,9.77ZM339.15,242.74c-3.54-5.16-6.9-8.49-10.09-9.99-3.19-1.51-6.33-1.2-9.42.92-3.06,2.1-4.5,4.86-4.3,8.29.19,3.43,1.96,7.63,5.3,12.61l6.97,10.17c3.43,5,6.7,8.17,9.82,9.52,3.12,1.35,6.23.95,9.35-1.19,3.01-2.06,4.45-4.76,4.33-8.08-.12-3.32-1.84-7.42-5.15-12.31l-6.81-9.93Z"/><path class="cls-15" d="M436.22,219.39c2.1,7.63,1.83,14-.82,19.13-2.65,5.13-7.52,8.83-14.61,11.13-7.46,2.41-13.97,1.81-19.52-1.82-5.56-3.62-9.81-9.98-12.75-19.07l-3.59-11.1c-2.93-9.06-3.13-16.71-.61-22.94,2.52-6.23,7.43-10.53,14.74-12.9,7.19-2.32,13.29-2.08,18.32.73,5.03,2.81,9.01,7.89,11.96,15.24l-13.36,4.32c-1.62-4.61-3.38-7.59-5.26-8.93s-4.58-1.45-8.08-.31c-3.56,1.15-5.68,3.21-6.36,6.18-.67,2.97-.13,7.32,1.62,13.06l4.03,12.46c2.12,6.55,4.31,10.82,6.56,12.79,2.26,1.97,5.16,2.38,8.73,1.23,3.5-1.13,5.64-2.77,6.42-4.9.78-2.14.53-5.47-.73-10l13.32-4.31Z"/><path class="cls-15" d="M496.87,235.28l-13.87,1.44-3.07-29.5-20.55,2.14,3.07,29.5-13.92,1.45-7.17-68.94,13.92-1.45,2.9,27.89,20.55-2.14-2.9-27.89,13.87-1.44,7.17,68.94Z"/><path class="cls-15" d="M540.04,224.93l-18.97-2.1-5.25,13.69-14.72-1.63,29.16-66.51,12.73,1.41,14.04,71.29-14.86-1.65-2.13-14.51ZM525.38,211.57l12.87,1.43-3.72-25.27-9.15,23.84Z"/><path class="cls-15" d="M614.38,198.95l-16.42-4.92-16.54,55.23-13.45-4.03,16.54-55.23-16.14-4.83,3.35-11.17,46.01,13.78-3.35,11.17Z"/><path class="cls-15" d="M643.86,250.81l-12.92,20.67-11.87-7.42,36.73-58.78,20.02,12.51c5.81,3.63,9.32,8.33,10.53,14.1,1.2,5.77,0,11.53-3.59,17.29-3.6,5.76-8.15,9.24-13.65,10.44-5.5,1.2-11.28-.09-17.34-3.87l-7.91-4.94ZM650.04,240.92l8.15,5.1c2.26,1.41,4.47,1.77,6.64,1.06,2.16-.71,4.13-2.47,5.89-5.3,1.83-2.93,2.66-5.66,2.48-8.19-.18-2.53-1.33-4.47-3.43-5.82l-8.28-5.17-11.45,18.33Z"/><path class="cls-15" d="M681.11,293.75l18.1,16.6-7.85,8.56-28.42-26.06,46.85-51.08,10.31,9.46-39,42.52Z"/><path class="cls-15" d="M726.61,341.3l-11.36-15.34-13.61,5.46-8.81-11.9,68.6-23.83,7.62,10.29-42.74,58.76-8.89-12.01,9.19-11.42ZM726.44,321.46l7.7,10.41,16.01-19.9-23.71,9.49Z"/><path class="cls-15" d="M796.21,378.12l-7.57-15.38-51.73,25.45-6.2-12.6,51.73-25.45-7.44-15.12,10.47-5.15,21.2,43.1-10.47,5.15Z"/><path class="cls-15" d="M782.77,435.24l-5.95-20.93-27.2,7.73-3.83-13.46,66.67-18.95,10.49,36.91-11.22,3.19-6.66-23.45-17.08,4.85,5.95,20.93-11.17,3.18Z"/><path class="cls-15" d="M790,496.48c-9.26.8-16.65-.76-22.15-4.7-5.5-3.94-8.59-9.79-9.26-17.57-.67-7.75,1.34-14.05,6.03-18.92,4.69-4.87,11.6-7.73,20.73-8.58l11.81-1.02c9.49-.82,17.08.73,22.79,4.67,5.71,3.93,8.9,9.8,9.58,17.61.67,7.68-1.43,13.96-6.27,18.85-4.85,4.88-12,7.76-21.45,8.65l-11.81,1.02ZM800.36,481.49c6.23-.54,10.78-1.83,13.67-3.86,2.88-2.03,4.16-4.92,3.84-8.65-.32-3.7-2.02-6.31-5.1-7.82-3.08-1.52-7.61-2.05-13.59-1.59l-12.28,1.07c-6.04.52-10.41,1.81-13.12,3.86-2.71,2.05-3.89,4.96-3.57,8.72.31,3.64,1.95,6.22,4.9,7.75,2.95,1.53,7.37,2.05,13.25,1.57l12-1.04Z"/><path class="cls-15" d="M783.99,529.54l.8-6.9-25.16-2.9,1.6-13.9,68.86,7.94-2.56,22.18c-.8,6.97-3.23,12.14-7.28,15.53-4.05,3.38-9.4,4.69-16.05,3.92-9.14-1.05-15.16-5.12-18.05-12.19l-29.58,8.81-.66-.08,1.72-14.94,26.35-7.46ZM796.37,523.97l-.91,7.9c-.32,2.77.36,4.96,2.05,6.56,1.68,1.6,4.07,2.58,7.16,2.93,6.9.8,10.67-1.5,11.29-6.89l.94-8.13-20.52-2.37Z"/><path class="cls-15" d="M814.71,596.69l-51.59-4.73,42.71,29.31-6.21,17.19-65.19-23.56,4.77-13.21,17.64,6.38,26.74,11.03-40.11-29.23,3.24-8.95,49.52,3.17-27.61-8.61-17.64-6.38,4.76-13.16,65.19,23.56-6.21,17.19Z"/><path class="cls-15" d="M408.39,824.03l-42.55-15.08,3.51-9.92,28.35-17.93c3.7-2.56,6.59-4.93,8.69-7.11,2.09-2.18,3.56-4.46,4.41-6.84,1.14-3.21,1.47-5.92,1.01-8.13-.46-2.21-1.74-3.69-3.82-4.42-2.28-.81-4.47-.39-6.56,1.25-2.09,1.64-3.81,4.38-5.17,8.22l-14.09-4.99c1.57-4.43,3.92-8.16,7.06-11.18,3.14-3.02,6.73-4.96,10.77-5.81s8.16-.54,12.36.95c6.45,2.28,10.82,5.83,13.11,10.65,2.29,4.81,2.28,10.49-.04,17.04-1.44,4.07-3.89,7.84-7.33,11.33-3.45,3.49-8.84,7.37-16.16,11.66l-13.97,9.96,24.55,8.7-4.13,11.66Z"/><path class="cls-15" d="M474.97,803.88c-1.61,10.47-4.73,18.19-9.38,23.15-4.65,4.97-10.49,6.91-17.53,5.83-6.97-1.07-11.94-4.59-14.91-10.57-2.97-5.97-3.75-14-2.35-24.08l2.2-14.3c1.6-10.44,4.72-18.13,9.35-23.08,4.63-4.95,10.48-6.88,17.55-5.8,7.07,1.09,12.08,4.66,15.02,10.72,2.94,6.06,3.66,14.17,2.17,24.34l-2.12,13.78ZM462.55,786.27c.92-5.96,1.01-10.53.29-13.69-.72-3.16-2.33-4.94-4.83-5.32-4.68-.72-7.95,4.37-9.8,15.27l-2.9,18.88c-.94,6.1-1.04,10.74-.3,13.9.74,3.17,2.37,4.94,4.9,5.33,2.39.37,4.38-.76,5.97-3.37,1.59-2.61,2.86-6.79,3.81-12.54l2.83-18.46Z"/><path class="cls-15" d="M534.07,834.83l-45.12,1.46-.34-10.52,19.87-27.02c2.51-3.73,4.34-6.99,5.5-9.79,1.15-2.79,1.69-5.45,1.61-7.98-.11-3.4-.78-6.05-2.02-7.94-1.24-1.89-2.96-2.8-5.17-2.73-2.42.08-4.3,1.26-5.65,3.55-1.35,2.29-1.95,5.47-1.82,9.54l-14.94.48c-.15-4.7.68-9.02,2.5-12.98,1.82-3.95,4.46-7.07,7.91-9.34s7.41-3.48,11.86-3.62c6.84-.22,12.2,1.49,16.09,5.14,3.89,3.65,5.95,8.94,6.18,15.88.14,4.31-.76,8.72-2.7,13.22-1.94,4.5-5.54,10.09-10.8,16.75l-9.38,14.36,26.03-.85.4,12.36Z"/><path class="cls-15" d="M555.32,785.61l7.04-1.57c2.67-.59,4.42-1.96,5.26-4.11.83-2.14.91-4.77.21-7.89-.66-2.98-1.82-5.16-3.47-6.53-1.65-1.37-3.56-1.82-5.72-1.34-2.02.45-3.5,1.6-4.43,3.47-.93,1.86-1.13,3.99-.6,6.39l-14.54,3.23c-.87-3.9-.75-7.6.36-11.1,1.11-3.5,3.09-6.48,5.93-8.95,2.85-2.47,6.24-4.14,10.18-5.01,6.88-1.53,12.7-.83,17.45,2.1s7.86,7.7,9.33,14.31c.75,3.39.57,6.73-.55,10.01-1.12,3.29-2.95,6.02-5.48,8.2,3.86.72,6.99,2.4,9.39,5.03,2.4,2.63,4.06,6,4.97,10.11,1.48,6.64.55,12.44-2.79,17.38-3.34,4.95-8.45,8.19-15.33,9.72-6.4,1.42-12.04.6-16.91-2.47-4.87-3.07-8.02-7.82-9.45-14.26l14.54-3.23c.59,2.67,1.79,4.76,3.6,6.26,1.81,1.5,3.79,2.01,5.95,1.53,2.5-.56,4.27-1.92,5.32-4.09,1.04-2.17,1.22-4.8.54-7.88-1.64-7.36-5.32-10.42-11.05-9.19l-7.14,1.59-2.6-11.71Z"/></g></svg>