<svg xmlns="http://www.w3.org/2000/svg" width="133.231" height="104.331" viewBox="0 0 133.231 104.331">
  <g id="icon_usp_privacy" transform="translate(0 0)">
    <path id="Pfad_12" data-name="Pfad 12" d="M116.329,207.131q-1.088,0-2.18-.1a23.6,23.6,0,0,1-15.521-7.921,23.905,23.905,0,0,1-5.035-9,23.782,23.782,0,0,1-25.061,16.921,23.283,23.283,0,0,1-15.417-7.985,24.674,24.674,0,0,1-6.037-15.217l-.929-.535a6.584,6.584,0,0,1-3.289-5.69v-3.093a6.562,6.562,0,0,1,4.947-6.364l.43-.109a25.214,25.214,0,0,0,3.527-1.147c1.1-.461,2.291-.891,3.531-1.277a55.662,55.662,0,0,1,30.729-.233c1.588.464,2.8.928,3.777,1.3a8.452,8.452,0,0,0,7.578,0c.975-.373,2.188-.837,3.767-1.3a55.674,55.674,0,0,1,30.727.226c1.085.339,2.123.707,3.1,1.1a31.438,31.438,0,0,0,3.985,1.334l.419.106a6.561,6.561,0,0,1,4.95,6.364V177.6a6.585,6.585,0,0,1-3.288,5.69l-.916.527a23.764,23.764,0,0,1-23.791,23.314M52.723,176.388a7.558,7.558,0,0,1,3.6,6.435c-.006,7.71,5.738,14.291,13.075,14.979a14.517,14.517,0,0,0,15.909-14.418c0-.165,0-.329-.01-.493a8.443,8.443,0,0,1,2.4-6.174,8.3,8.3,0,0,1,.752-.68c-.684-.22-1.324-.464-1.956-.706-.9-.346-1.839-.7-3.06-1.06a46.421,46.421,0,0,0-25.39.187c-.955.3-1.868.627-2.7.977s-1.693.661-2.615.953m49.158,6.624A14.671,14.671,0,0,0,115,197.805a14.361,14.361,0,0,0,11.124-3.719,14.522,14.522,0,0,0,4.736-10.7,8.52,8.52,0,0,1,3.65-6.994c-.961-.311-1.955-.672-3-1.092-.743-.3-1.547-.583-2.387-.846a46.433,46.433,0,0,0-25.386-.179c-1.212.354-2.146.712-3.05,1.057-.614.235-1.236.473-1.9.688a8.46,8.46,0,0,1,3.093,6.85Zm-9.253-.5v0Z" transform="translate(-26.976 -102.8)" fill="#525151"/>
    <path id="Pfad_13" data-name="Pfad 13" d="M66.615,58.432A535.239,535.239,0,0,1,8.153,55.441,9.176,9.176,0,0,1,10.2,37.2c3.5.394,7.268.759,11.259,1.09L32.087,10.827A17.042,17.042,0,0,1,51.678.423L64.9,3.45a7.729,7.729,0,0,0,3.429,0L81.553.423a17.041,17.041,0,0,1,19.59,10.4l10.632,27.465c3.988-.331,7.76-.7,11.249-1.09a9.176,9.176,0,1,1,2.051,18.238,535.182,535.182,0,0,1-58.461,2.991M27.676,47.888c12.29.842,25.472,1.279,38.939,1.279s26.651-.437,38.94-1.28L92.5,14.172a7.727,7.727,0,0,0-8.883-4.718L70.4,12.481a17.047,17.047,0,0,1-7.565,0L49.61,9.454a7.728,7.728,0,0,0-8.884,4.718Zm96.289-1.555h0l4.6-.519Z" transform="translate(0 0)" fill="#525151"/>
  </g>
</svg>
