<?xml version="1.0" encoding="UTF-8"?><svg id="Ebene_2" xmlns="http://www.w3.org/2000/svg" viewBox="0 0 1000 1000"><defs><style>.cls-1,.cls-2,.cls-3{stroke-width:0px;}.cls-2{fill:#e5c400;}.cls-3{fill-rule:evenodd;}</style></defs><g id="Layer_1"><circle class="cls-2" cx="500" cy="500" r="500"/><path class="cls-1" d="M500,955c-61.42,0-121.01-12.03-177.11-35.76-54.18-22.92-102.84-55.72-144.63-97.51-41.78-41.78-74.59-90.44-97.51-144.63-23.73-56.1-35.76-115.69-35.76-177.11s12.03-121.01,35.76-177.11c22.92-54.18,55.72-102.84,97.51-144.63,41.78-41.78,90.44-74.59,144.63-97.51,56.1-23.73,115.69-35.76,177.11-35.76s121.01,12.03,177.11,35.76c54.18,22.92,102.84,55.72,144.63,97.51,41.78,41.78,74.59,90.44,97.51,144.63,23.73,56.1,35.76,115.69,35.76,177.11s-12.03,121.01-35.76,177.11c-22.92,54.18-55.72,102.84-97.51,144.63-41.78,41.78-90.44,74.59-144.63,97.51-56.1,23.73-115.69,35.76-177.11,35.76ZM500,55c-60.08,0-118.35,11.77-173.21,34.97-52.99,22.41-100.58,54.5-141.45,95.37s-72.96,88.46-95.37,141.45c-23.2,54.86-34.97,113.14-34.97,173.21s11.77,118.35,34.97,173.21c22.41,52.99,54.5,100.58,95.37,141.45s88.46,72.96,141.45,95.37c54.86,23.2,113.14,34.97,173.21,34.97s118.35-11.77,173.21-34.97c52.99-22.41,100.58-54.5,141.45-95.37s72.96-88.46,95.37-141.45c23.2-54.86,34.97-113.14,34.97-173.21s-11.76-118.35-34.97-173.21c-22.41-52.99-54.5-100.58-95.37-141.45s-88.46-72.96-141.45-95.37c-54.86-23.2-113.14-34.97-173.21-34.97Z"/><path class="cls-1" d="M500,754.93c-68.09,0-132.11-26.52-180.26-74.67-48.15-48.15-74.67-112.17-74.67-180.26s26.52-132.11,74.67-180.26c48.15-48.15,112.17-74.67,180.26-74.67s132.11,26.52,180.26,74.67c48.15,48.15,74.67,112.17,74.67,180.26s-26.52,132.11-74.67,180.26c-48.15,48.15-112.17,74.67-180.26,74.67ZM500,254.93c-65.46,0-127,25.49-173.29,71.78-46.29,46.29-71.78,107.83-71.78,173.29s25.49,127,71.78,173.29c46.29,46.29,107.83,71.78,173.29,71.78s127-25.49,173.29-71.78c46.29-46.29,71.78-107.83,71.78-173.29s-25.49-127-71.78-173.29c-46.29-46.29-107.83-71.78-173.29-71.78Z"/><path class="cls-1" d="M260.01,296.69l-11.1,14.21-55.63-43.45-5.47,18.04-11.81-9.22,9.89-35.04,1.17-1.5,72.93,56.97Z"/><path class="cls-1" d="M289.77,215.78c8.36,9.66,13.01,18.57,13.93,26.73.93,8.15-1.86,15.04-8.36,20.66-6.43,5.57-13.55,7.38-21.36,5.43-7.81-1.94-15.79-7.5-23.95-16.67l-11.42-13.2c-8.33-9.63-12.97-18.51-13.89-26.63-.93-8.12,1.87-15.01,8.4-20.66,6.53-5.65,13.72-7.45,21.59-5.42,7.86,2.04,15.88,7.72,24.06,17.04l11.01,12.72ZM263.88,213.42c-4.76-5.5-8.88-9.16-12.35-10.97-3.47-1.81-6.36-1.72-8.66.27-4.32,3.74-2.2,10.72,6.36,20.94l15.08,17.42c4.87,5.63,9.05,9.35,12.54,11.14,3.49,1.8,6.4,1.68,8.73-.34,2.21-1.91,2.73-4.62,1.58-8.12-1.16-3.5-4-7.94-8.53-13.31l-14.74-17.04Z"/><path class="cls-1" d="M348.94,180.31c6.33,11.1,9.16,20.74,8.49,28.92-.67,8.18-4.74,14.39-12.2,18.65-7.39,4.21-14.73,4.61-22.01,1.19-7.28-3.42-14.04-10.42-20.27-21l-8.65-15.16c-6.31-11.06-9.13-20.67-8.47-28.82.66-8.15,4.74-14.36,12.24-18.64s14.91-4.65,22.23-1.13c7.32,3.52,14.09,10.65,20.3,21.38l8.33,14.61ZM324.01,172.98c-3.61-6.32-6.93-10.71-9.99-13.16-3.05-2.45-5.9-2.92-8.55-1.41-4.96,2.83-4.23,10.09,2.18,21.77l11.41,20.02c3.69,6.47,7.07,10.92,10.14,13.36,3.07,2.44,5.95,2.89,8.63,1.36,2.54-1.45,3.58-4,3.12-7.66-.46-3.66-2.39-8.56-5.79-14.71l-11.16-19.58Z"/><path class="cls-1" d="M352.6,138.27c-1.64-5.38-1.49-10.23.44-14.54,1.94-4.31,5.44-7.23,10.5-8.78,5.06-1.54,9.61-1.1,13.64,1.31,4.03,2.42,6.92,6.46,8.64,12.13l1.35,4.43c1.67,5.46,1.51,10.31-.47,14.55-1.98,4.23-5.48,7.11-10.5,8.65-4.98,1.52-9.5,1.08-13.57-1.3-4.07-2.39-6.97-6.43-8.71-12.14l-1.31-4.31ZM365.19,139.53c.74,2.43,1.85,4.2,3.32,5.33,1.47,1.12,2.99,1.44,4.57.96,1.62-.49,2.68-1.63,3.17-3.42.49-1.79.37-3.9-.37-6.32l-1.37-4.49c-.72-2.35-1.79-4.13-3.23-5.35-1.43-1.22-2.98-1.58-4.64-1.07-1.62.49-2.68,1.65-3.19,3.46-.51,1.81-.39,3.96.37,6.42l1.37,4.49ZM392.09,197.03l-9.54-2.13,15.17-80.15,9.6,2.11-15.23,80.17ZM402.61,177.36c-1.67-5.46-1.49-10.33.53-14.59,2.02-4.27,5.52-7.16,10.49-8.68,5.02-1.53,9.55-1.11,13.59,1.26,4.04,2.37,6.94,6.43,8.69,12.18l1.35,4.43c1.65,5.42,1.51,10.26-.42,14.5-1.94,4.24-5.45,7.14-10.55,8.69-5.14,1.57-9.72,1.13-13.74-1.32-4.02-2.45-6.88-6.44-8.57-11.99l-1.37-4.49ZM415.29,178.67c.69,2.27,1.81,4.01,3.35,5.22,1.54,1.21,3.06,1.59,4.56,1.13,3.36-1.02,4.39-3.97,3.08-8.84l-1.69-5.53c-.73-2.39-1.81-4.17-3.26-5.34-1.44-1.17-2.97-1.52-4.59-1.02-3.56,1.09-4.4,4.73-2.51,10.92l1.06,3.46Z"/><path class="cls-1" d="M518.11,161.77c.07-3.77-.83-6.63-2.72-8.59-1.89-1.96-5.35-4.03-10.39-6.2-9.2-3.69-15.78-7.94-19.75-12.74-3.97-4.8-5.89-10.41-5.77-16.84.15-7.78,3.04-13.98,8.65-18.59,5.61-4.61,12.67-6.83,21.18-6.66,5.67.11,10.7,1.41,15.1,3.88,4.4,2.48,7.75,5.92,10.05,10.32,2.3,4.41,3.4,9.38,3.29,14.92l-18.6-.36c.08-4.32-.77-7.62-2.57-9.92-1.8-2.3-4.43-3.48-7.9-3.55-3.26-.06-5.82.85-7.67,2.74-1.86,1.89-2.82,4.46-2.88,7.72-.05,2.54.92,4.85,2.91,6.95,1.99,2.09,5.54,4.29,10.66,6.59,8.95,3.44,15.42,7.56,19.41,12.38,3.99,4.82,5.91,10.89,5.77,18.21-.16,8.04-2.84,14.27-8.05,18.7-5.21,4.43-12.21,6.55-21.01,6.38-5.97-.12-11.38-1.45-16.24-4-4.86-2.55-8.63-6.14-11.31-10.76-2.68-4.62-3.96-10.05-3.84-16.26l18.72.37c-.1,5.33.86,9.22,2.88,11.67,2.03,2.45,5.39,3.72,10.08,3.82,6.51.13,9.84-3.26,9.98-10.15Z"/><path class="cls-1" d="M570.56,194.97c-9.01-1.98-15.45-6.21-19.31-12.69-3.86-6.48-4.7-14.72-2.5-24.73l1.17-5.33c2.32-10.58,6.43-18.24,12.32-22.96,5.89-4.73,13.16-6.14,21.79-4.25,8.43,1.85,14.18,5.94,17.26,12.26,3.07,6.32,3.49,14.77,1.25,25.36l-1.89,8.6-34.91-7.67c-.85,5.04-.55,8.92.89,11.65,1.44,2.73,4.18,4.54,8.23,5.43,5.87,1.29,11.21.36,16.02-2.79l4.55,12.11c-2.8,2.5-6.45,4.23-10.95,5.17-4.5.94-9.14.88-13.94-.17ZM568.56,151.38l17.55,3.85.35-1.61c.8-4.03.8-7.21.02-9.55-.79-2.34-2.71-3.84-5.77-4.52-3.06-.67-5.52-.06-7.39,1.82-1.87,1.89-3.45,5.22-4.76,10Z"/><path class="cls-1" d="M628.56,198.24c4.8,2.02,8.55-.07,11.26-6.28l15.56,6.56c-2.99,6.87-7.46,11.55-13.42,14.04-5.96,2.49-12.24,2.35-18.83-.43-8.15-3.43-13.3-8.59-15.46-15.47-2.16-6.88-1.19-15.27,2.89-25.16l2.12-5.03c4.19-9.94,9.5-16.64,15.93-20.08,6.43-3.44,13.78-3.42,22.05.06,6.98,2.94,11.57,7.41,13.77,13.41,2.2,6,1.67,12.98-1.58,20.93l-15.56-6.56c1.46-3.56,2.02-6.54,1.7-8.93-.33-2.39-1.8-4.13-4.41-5.23-2.89-1.22-5.38-1.06-7.49.46-2.11,1.52-4.45,5.21-7,11.07l-2.71,6.43c-2.17,5.15-3.43,8.85-3.79,11.11-.36,2.26-.15,4.12.62,5.56.77,1.45,2.22,2.62,4.37,3.53Z"/><path class="cls-1" d="M683.21,236.8c-5.88,2.15-11.44,1.51-16.66-1.94-5.26-3.47-8.06-7.91-8.39-13.33-.33-5.42,1.79-11.58,6.35-18.51l24.5-37.15,15,9.89-24.74,37.52c-3.61,5.63-3.6,9.64.04,12.04,3.43,2.26,6.88,2.41,10.35.44l27.33-41.44,15.1,9.96-37.82,57.33-14.09-9.3,3.04-5.53Z"/><path class="cls-1" d="M760.83,243.1l-4.06-4.4c-3.62-3.32-7.53-3.97-11.72-1.96l-30.66,33.47-13.29-12.18,46.39-50.64,12.5,11.45-4.64,5.82c6.01-2.36,10.85-1.85,14.53,1.52,1.5,1.37,2.53,2.69,3.09,3.95l-12.15,12.98Z"/><path class="cls-1" d="M746.76,307.4c-5.75-7.21-8.09-14.55-7.01-22.02,1.08-7.47,5.62-14.39,13.63-20.78l4.27-3.41c8.47-6.76,16.48-10.12,24.03-10.08,7.55.04,14.09,3.51,19.61,10.42,5.38,6.75,7.28,13.54,5.69,20.39-1.59,6.85-6.59,13.68-14.99,20.49l-6.89,5.49-22.29-27.93c-3.83,3.38-6.04,6.58-6.65,9.61-.6,3.03.39,6.16,2.98,9.4,3.75,4.7,8.48,7.34,14.2,7.92l-4.09,12.28c-3.75.18-7.67-.78-11.76-2.88-4.08-2.1-7.66-5.07-10.72-8.91ZM772.66,272.28l11.2,14.04,1.29-1.03c3.15-2.63,5.16-5.1,6.03-7.41.86-2.31.32-4.69-1.64-7.14-1.95-2.45-4.25-3.53-6.89-3.24-2.64.29-5.97,1.88-10,4.77Z"/><path class="cls-1" d="M190.77,707.56c-10.87,5.97-20.71,8.04-29.54,6.21-8.83-1.83-15.75-7.31-20.77-16.43-5-9.09-5.94-17.86-2.85-26.32,3.1-8.46,9.98-15.68,20.66-21.65l13.85-7.62c11.12-6.12,21.23-8.32,30.31-6.6,9.08,1.72,16.14,7.16,21.18,16.32,4.95,9.01,5.79,17.8,2.51,26.37-3.28,8.57-10.45,15.93-21.49,22.1l-13.85,7.61ZM195.32,683.68c7.3-4.02,12.17-8.04,14.59-12.08,2.42-4.03,2.42-8.24.02-12.61-2.39-4.34-5.86-6.6-10.44-6.79-4.57-.19-10.38,1.6-17.43,5.38l-14.41,7.92c-7.08,3.89-11.72,7.82-13.91,11.78-2.19,3.96-2.08,8.14.35,12.56,2.34,4.26,5.73,6.53,10.15,6.81,4.42.27,10.09-1.47,17.01-5.22l14.07-7.74Z"/><path class="cls-1" d="M234.89,713.26l-4.85,4.79c6.73-.39,12.21,1.92,16.46,6.92,7.65,9,5.28,18.98-7.11,29.96l-34.39,29.23-11.68-13.74,33.37-28.37c2.97-2.52,4.74-4.79,5.33-6.82.58-2.02-.07-4.15-1.96-6.37-2.11-2.48-5.03-3.33-8.75-2.56l-38.01,32.31-11.68-13.74,52.33-44.48,10.94,12.86Z"/><path class="cls-1" d="M234.28,810.78l-13.44-12.02,65-72.67,13.44,12.02-65,72.67Z"/><path class="cls-1" d="M264.26,834.13l-14.49-10.73,40.87-55.2,14.49,10.73-40.87,55.2ZM300.55,753.43c1.66-2.24,3.74-3.55,6.22-3.92,2.49-.37,4.92.32,7.3,2.09,2.38,1.76,3.76,3.89,4.13,6.37.37,2.49-.27,4.85-1.94,7.1-1.64,2.21-3.7,3.53-6.2,3.94-2.49.42-4.95-.27-7.36-2.06-2.42-1.79-3.79-3.94-4.12-6.44-.33-2.51.32-4.87,1.96-7.08Z"/><path class="cls-1" d="M329.32,794.39l-2.81,6.2c6.14-2.77,12.09-2.58,17.85.56,10.36,5.66,11.72,15.83,4.09,30.52l-21.64,39.61-15.82-8.64,21-38.44c1.87-3.42,2.71-6.17,2.53-8.27-.18-2.1-1.55-3.85-4.11-5.25-2.86-1.56-5.89-1.31-9.09.75l-23.92,43.78-15.82-8.64,32.93-60.27,14.82,8.09Z"/><path class="cls-1" d="M374.1,890.38c-8.76-2.9-14.72-7.77-17.9-14.61-3.17-6.84-3.15-15.13.07-24.85l1.71-5.18c3.4-10.28,8.28-17.47,14.63-21.57,6.35-4.1,13.72-4.75,22.12-1.98,8.2,2.71,13.5,7.37,15.9,13.97,2.41,6.6,1.95,15.05-1.37,25.35l-2.77,8.36-33.93-11.23c-1.36,4.92-1.47,8.82-.32,11.68,1.15,2.86,3.69,4.95,7.63,6.25,5.7,1.89,11.11,1.51,16.22-1.12l3.28,12.52c-3.05,2.2-6.85,3.54-11.42,4.01-4.57.47-9.18-.06-13.84-1.61ZM376.62,846.82l17.05,5.64.52-1.57c1.21-3.92,1.54-7.09,1-9.5-.54-2.41-2.3-4.1-5.27-5.09-2.97-.98-5.49-.63-7.54,1.05-2.05,1.68-3.97,4.84-5.77,9.46Z"/><path class="cls-1" d="M473.63,875.54l-1.31,32.47-18.65-.75,3.73-92.35,31.46,1.27c9.13.37,16.3,3.5,21.51,9.38,5.2,5.89,7.62,13.35,7.26,22.4-.37,9.05-3.34,16.09-8.92,21.11-5.58,5.03-13.13,7.35-22.64,6.96l-12.43-.5ZM474.26,860l12.81.52c3.55.14,6.35-.91,8.39-3.16,2.04-2.25,3.15-5.59,3.33-10.03.19-4.61-.66-8.32-2.54-11.12-1.88-2.81-4.49-4.3-7.82-4.48l-13-.53-1.16,28.79Z"/><path class="cls-1" d="M553.89,905.37l-17.92,1.96-10.6-96.92,17.92-1.96,10.6,96.92Z"/><path class="cls-1" d="M606.95,894.75c-.75-.9-1.67-2.51-2.76-4.81-2.06,5.05-5.77,8.23-11.1,9.55-5.59,1.38-10.68.68-15.27-2.1-4.59-2.79-7.62-7.12-9.07-12.99-1.73-6.98-.84-12.94,2.67-17.86,3.51-4.92,9.45-8.46,17.8-10.62l5.3-1.31-1.33-5.36c-.74-3-1.78-4.99-3.11-5.96-1.33-.98-2.98-1.22-4.96-.73-4.35,1.08-5.9,4.17-4.64,9.26l-17.44,4.32c-1.53-6.16-.48-11.82,3.15-16.97,3.63-5.15,8.98-8.6,16.04-10.35,7.31-1.81,13.44-1.31,18.39,1.49,4.95,2.81,8.29,7.74,10.04,14.81l7.77,31.36c1.51,5.73,3.44,10.03,5.81,12.88l.26,1.05-17.56,4.35ZM593.58,884.85c1.93-.48,3.48-1.28,4.64-2.39,1.16-1.12,1.94-2.29,2.33-3.52l-3.43-13.86-4.19,1.04c-2.96.73-5.05,2.26-6.29,4.57-1.24,2.31-1.46,5.05-.68,8.21,1.22,4.93,3.76,6.92,7.62,5.96Z"/><path class="cls-1" d="M629.03,796.56l6.38,15.63,8.52-3.48,5.09,12.46-8.52,3.48,12.91,31.6c1.03,2.51,2.07,4.1,3.14,4.76,1.07.66,2.58.59,4.54-.21,1.61-.66,2.86-1.33,3.77-2.02l5.16,12.98c-2.39,2.21-5.23,3.99-8.52,5.33-10.73,4.38-18.67.44-23.82-11.82l-13.82-33.83-7.35,3-5.09-12.46,7.35-3-6.38-15.63,16.63-6.79Z"/><path class="cls-1" d="M688.39,863.04l-26.75-48.32-7.28,4.03-6.52-11.77,7.27-4.03-2.98-5.39c-3.63-6.65-4.74-12.77-3.31-18.37,1.42-5.6,5.19-10.09,11.3-13.47,1.85-1.02,4.43-1.97,7.72-2.82l6.84,12.61c-1.26.26-2.63.8-4.11,1.62-4.67,2.58-5.46,6.65-2.39,12.2l2.71,4.89,9.39-5.2,6.52,11.77-9.39,5.2,26.75,48.32-15.77,8.73Z"/><path class="cls-1" d="M705.26,811.82c-6.36-8.24-9.41-16.2-9.15-23.89.26-7.69,3.83-14.19,10.69-19.49,6.93-5.36,14.15-7.19,21.66-5.5,7.51,1.69,14.47,6.68,20.88,14.99l2.68,3.47c6.39,8.27,9.46,16.22,9.2,23.85-.26,7.63-3.85,14.12-10.78,19.48-6.97,5.38-14.19,7.23-21.66,5.55s-14.42-6.68-20.84-14.98l-2.68-3.47ZM722.28,804.37c7.5,9.71,13.85,12.56,19.04,8.55,4.79-3.7,4.24-9.74-1.66-18.13l-4.57-6.02c-3.83-4.96-7.35-8.1-10.58-9.44-3.22-1.33-6.09-1.03-8.6.91-2.41,1.86-3.37,4.52-2.88,7.96.49,3.44,2.66,7.64,6.48,12.6l2.76,3.57Z"/><path class="cls-1" d="M771.93,732.76l-4.48,3.97c-3.39,3.56-4.11,7.45-2.18,11.68l32.87,31.3-12.43,13.06-49.74-47.36,11.69-12.27,5.73,4.75c-2.24-6.05-1.64-10.88,1.8-14.5,1.4-1.47,2.74-2.48,4.01-3.02l12.74,12.39Z"/><path class="cls-1" d="M774.5,702.37l5.64,2.96c-2.15-6.11-1.45-11.96,2.07-17.54,3.66-5.8,8.86-8.24,15.6-7.34-3.12-6.63-2.74-13.02,1.15-19.17,6.42-10.16,16.74-10.92,30.96-2.29l38.04,24.05-9.6,15.19-37.08-23.43c-3.36-2.12-6.05-3.17-8.07-3.15-2.02.03-3.73,1.15-5.13,3.37-1.79,2.83-1.38,6.03,1.2,9.62l1.89,1.05,39.38,24.89-9.6,15.19-36.97-23.37c-3.33-2.1-6.01-3.18-8.06-3.22-2.05-.04-3.8,1.08-5.25,3.37-1.65,2.61-1.55,5.58.3,8.9l42.17,26.66-9.6,15.19-58.06-36.7,8.99-14.22Z"/><path class="cls-3" d="M395.14,456.63h10.45v-23.05c-.06-25.62,9.77-50.26,27.44-68.81,34.5-36.89,92.37-38.83,129.26-4.33,1.49,1.39,2.94,2.84,4.33,4.33,17.84,18.47,27.82,43.13,27.86,68.81v23.05h10.38c8.5,0,15.39,6.89,15.39,15.39v162.63c-.04,8.49-6.91,15.35-15.39,15.39h-209.71c-8.49-.04-15.35-6.91-15.39-15.39v-162.63c0-8.5,6.89-15.39,15.39-15.39ZM434.7,456.63h130.31v-23.05c.11-18.13-6.8-35.61-19.29-48.75-23.6-25.33-63.26-26.73-88.59-3.13-1.08,1.01-2.13,2.05-3.13,3.13-12.49,13.15-19.41,30.62-19.29,48.75v23.05ZM487.22,560.48l-16.58,43.53h58.44l-15.39-44.16c14.83-7.66,20.64-25.9,12.98-40.73-7.66-14.83-25.9-20.64-40.73-12.98-14.83,7.66-20.64,25.9-12.98,40.73,3.1,6,8.12,10.79,14.26,13.6Z"/><path class="cls-3" d="M150.16,412.44c28.27,17.92,53.8,26.39,75.72,24.39,3.83,77.42-24.76,123.14-75.43,142.22-48.93-17.86-77.86-61.61-75.72-143.39,25.73,1.35,50.97-4.22,75.43-23.22h0ZM150.77,438.94c19.28,12.22,36.69,18,51.63,16.63,2.61,52.79-16.89,83.97-51.43,96.98-.22-.08-.43-.16-.65-.24v-113.02l.45-.34h0ZM150.19,422.01c25.02,15.86,47.63,23.36,67.02,21.59,3.39,68.53-21.92,109-66.76,125.89-43.31-15.81-68.93-54.53-67.03-126.92,22.77,1.19,45.12-3.73,66.76-20.55h0Z"/><path class="cls-3" d="M849.84,412.44c24.46,19,49.7,24.56,75.43,23.22,2.15,81.78-26.79,125.53-75.72,143.39-50.66-19.08-79.25-64.8-75.43-142.22,21.92,2,47.45-6.47,75.72-24.39h0ZM849.23,438.94l.45.34v113.02c-.22.08-.43.16-.65.24-34.55-13.01-54.04-44.19-51.43-96.98,14.94,1.36,32.36-4.42,51.63-16.63h0ZM849.81,422.01c21.65,16.82,43.99,21.74,66.76,20.55,1.9,72.39-23.72,111.12-67.03,126.92-44.84-16.89-70.15-57.36-66.76-125.89,19.4,1.77,42-5.73,67.02-21.59h0Z"/></g></svg>