<?xml version="1.0" encoding="UTF-8"?>
<svg width="2176px" height="668px" viewBox="0 0 2176 668" version="1.1" xmlns="http://www.w3.org/2000/svg" xmlns:xlink="http://www.w3.org/1999/xlink">
    <title>logo_instacams</title>
    <defs>
        <linearGradient x1="18.9095279%" y1="18.9093702%" x2="81.0875923%" y2="81.0963902%" id="linearGradient-1">
            <stop stop-color="#30297E" offset="0%"></stop>
            <stop stop-color="#3F2B7F" offset="7%"></stop>
            <stop stop-color="#7C3683" offset="39%"></stop>
            <stop stop-color="#A93D86" offset="67%"></stop>
            <stop stop-color="#C44187" offset="88%"></stop>
            <stop stop-color="#CE4388" offset="100%"></stop>
        </linearGradient>
    </defs>
    <g id="logo_instacams" stroke="none" stroke-width="1" fill="none" fill-rule="evenodd">
        <g id="instacams_logo" transform="translate(40.350000, 40.004750)" fill-rule="nonzero">
            <g id="Group" transform="translate(580.650000, 214.485250)" fill="#666666">
                <polygon id="Path" points="0 225.4 0 5.6 48.4 5.6 48.4 225.4 0 225.4"></polygon>
                <path d="M92.2,225.4 L92.2,74.5 L136.9,74.5 L136.9,95 L137.5,95 C141,88.4 146.6,82.7 154.3,77.9 C162,73.1 171.1,70.8 181.6,70.8 C203.3,70.8 218.1,77 225.8,89.3 C233.6,101.6 237.4,119.3 237.4,142.2 L237.4,225.4 L190.8,225.4 L190.8,151.5 C190.8,147 190.7,143.3 190.6,140.5 C190.5,137.7 190,134.2 189.2,130.1 C188.4,126 187.1,122.8 185.5,120.5 C183.8,118.2 181.4,116.2 178.2,114.4 C175,112.6 171.1,111.8 166.6,111.8 C155.6,111.8 148.2,115.3 144.4,122.2 C140.6,129.1 138.7,138.5 138.7,150.3 L138.7,225.4 L92.2,225.4 L92.2,225.4 Z" id="Path"></path>
                <path d="M389.9,90.6 L361.3,118.9 C354.5,110.4 345.5,106.2 334.3,106.2 C329.7,106.2 325.8,107.2 322.3,109.3 C318.9,111.4 317.2,114.5 317.2,118.6 C317.2,121.9 319.1,124.7 322.9,126.8 C326.7,129 331.6,130.5 337.5,131.5 C343.4,132.5 349.7,133.9 356.4,135.8 C363.1,137.8 369.4,140.1 375.3,142.9 C381.2,145.7 386.1,150.2 389.9,156.6 C393.7,162.9 395.6,170.5 395.6,179.4 C395.6,188.3 393.5,196.5 389.4,203.3 C385.3,210.1 379.7,215.3 372.8,218.8 C365.9,222.3 358.5,224.9 350.8,226.6 C343,228.3 334.8,229.1 326.1,229.1 C300,229.1 280.3,222.3 266.8,208.6 L295.1,177.2 C304.2,188.2 315.2,193.7 328,193.7 C342.1,193.7 349.1,190.1 349.1,182.8 C349.1,178.5 346.4,175.1 341,172.9 C335.6,170.6 329.1,168.7 321.4,167.2 C313.7,165.6 306,163.6 298.3,161.1 C290.5,158.6 284,154.1 278.6,147.4 C273.2,140.8 270.5,132.2 270.5,121.6 C270.5,105 276.7,92.4 289.1,83.7 C301.5,75 316.4,70.7 333.8,70.7 C358.8,70.8 377.5,77.4 389.9,90.6 L389.9,90.6 Z" id="Path"></path>
                <path d="M528,74.5 L528,111.8 L487,111.8 L487,162.1 C487,171.6 488.3,178.7 491,183.2 C493.7,187.8 499.7,190 509,190 C518.3,190 524.8,188.6 527.9,185.7 L527.9,224.4 C519.4,227.5 508.5,229.1 495.3,229.1 C478.7,229.1 465.4,225.4 455.4,218.1 C445.4,210.8 440.3,199.2 440.3,183.5 L440.3,111.8 L410.7,111.8 L410.7,74.5 L440.5,74.5 L440.5,29.8 L487.1,29.8 L487.1,74.5 L528,74.5 Z" id="Path"></path>
                <path d="M651.9,225.4 L651.9,206.4 L651.3,206.4 C641.8,221.5 625.8,229.1 603.5,229.1 C588.6,229.1 575.9,225 565.5,216.7 C555,208.4 549.8,197 549.8,182.6 C549.8,175.4 551.1,168.9 553.7,163.2 C556.3,157.5 559.4,152.9 563.2,149.2 C566.9,145.6 571.9,142.5 578.1,139.9 C584.3,137.3 590.1,135.4 595.3,134 C600.6,132.7 607.1,131.6 615,130.9 C622.9,130.2 629.2,129.8 633.9,129.7 C638.7,129.6 644.7,129.5 651.9,129.5 C651.9,121.4 649,114.9 643.2,109.9 C637.4,104.9 630.4,102.4 622.1,102.4 C607.6,102.4 595,108.4 584.2,120.4 L559.4,94.9 C576.4,78.8 598.5,70.7 625.8,70.7 C653.1,70.7 669.6,77 679.7,89.6 C689.7,102.2 694.8,121.9 694.8,148.6 L694.8,225.4 L651.9,225.4 L651.9,225.4 Z M651.9,159.2 L640.4,159.2 C609.8,159.2 594.5,166.4 594.5,180.9 C594.5,186.1 596.7,190.1 601.2,193 C605.6,195.9 610.8,197.3 616.6,197.3 C626.3,197.3 634.7,194.8 641.6,189.8 C648.5,184.8 652,177.9 652,169 L652,159.2 L651.9,159.2 L651.9,159.2 Z" id="Shape"></path>
                <path d="M916.4,32.3 L879.1,62.7 C869,50.7 855.1,44.7 837.5,44.7 C819.9,44.7 803.9,51.4 791.9,64.7 C779.9,78 773.9,95 773.9,115.5 C773.9,136 779.8,152.7 791.8,166.1 C803.7,179.6 818.4,186.3 836,186.3 C855.7,186.3 870.8,178.4 881.3,162.7 L921.7,192.8 C912.8,205.4 901.3,214.9 887.1,221.4 C872.9,227.8 858,231 842.2,231 C807.4,231 779,220.4 756.8,199.3 C734.7,178.2 723.6,150.2 723.6,115.5 C723.6,80.8 734.7,52.8 756.8,31.7 C778.9,10.6 807.4,0 842.2,0 C856.1,0 869.7,2.6 883.2,7.8 C896.6,12.9 907.7,21.1 916.4,32.3 Z" id="Path"></path>
                <path d="M1042.4,225.4 L1042.4,206.4 L1041.8,206.4 C1032.3,221.5 1016.3,229.1 994,229.1 C979.1,229.1 966.4,225 956,216.7 C945.5,208.4 940.3,197 940.3,182.6 C940.3,175.4 941.6,168.9 944.2,163.2 C946.8,157.5 949.9,152.9 953.7,149.2 C957.4,145.6 962.4,142.5 968.6,139.9 C974.8,137.3 980.6,135.4 985.8,134 C991.1,132.7 997.6,131.6 1005.5,130.9 C1013.4,130.2 1019.7,129.8 1024.4,129.7 C1029.2,129.6 1035.2,129.5 1042.4,129.5 C1042.4,121.4 1039.5,114.9 1033.7,109.9 C1027.9,104.9 1020.9,102.4 1012.6,102.4 C998.1,102.4 985.5,108.4 974.7,120.4 L949.9,94.9 C966.9,78.8 989,70.7 1016.3,70.7 C1043.6,70.7 1060.1,77 1070.2,89.6 C1080.2,102.2 1085.3,121.9 1085.3,148.6 L1085.3,225.4 L1042.4,225.4 L1042.4,225.4 Z M1042.4,159.2 L1030.9,159.2 C1000.3,159.2 985,166.4 985,180.9 C985,186.1 987.2,190.1 991.7,193 C996.1,195.9 1001.3,197.3 1007.1,197.3 C1016.8,197.3 1025.2,194.8 1032.1,189.8 C1039,184.8 1042.5,177.9 1042.5,169 L1042.5,159.2 L1042.4,159.2 L1042.4,159.2 Z" id="Shape"></path>
                <path d="M1120,225.4 L1120,74.5 L1164.7,74.5 L1164.7,95 L1165.3,95 C1168.8,88.4 1174.4,82.7 1182.1,77.9 C1189.8,73.1 1198.9,70.8 1209.4,70.8 C1232.6,70.8 1248.1,79.8 1256,97.8 C1266.1,79.8 1282.1,70.8 1303.8,70.8 C1339.4,70.8 1357.2,92.6 1357.2,136.3 L1357.2,225.4 L1310.6,225.4 L1310.6,137.5 C1310.6,120.3 1303.8,111.7 1290.1,111.7 C1271.3,111.7 1261.8,123 1261.8,145.5 L1261.8,225.4 L1215.2,225.4 L1215.2,145.6 C1215.2,141.1 1215.1,137.6 1214.9,135.2 C1214.7,132.8 1214,129.4 1212.9,125 C1211.8,120.6 1209.6,117.2 1206.5,115.1 C1203.4,112.9 1199.4,111.8 1194.4,111.8 C1183.4,111.8 1176,115.3 1172.2,122.2 C1168.4,129.1 1166.5,138.5 1166.5,150.3 L1166.5,225.4 L1120,225.4 L1120,225.4 Z" id="Path"></path>
                <path d="M1509.6,90.6 L1481,118.9 C1474.2,110.4 1465.2,106.2 1454,106.2 C1449.4,106.2 1445.5,107.2 1442,109.3 C1438.6,111.4 1436.9,114.5 1436.9,118.6 C1436.9,121.9 1438.8,124.7 1442.6,126.8 C1446.4,129 1451.3,130.5 1457.2,131.5 C1463.1,132.5 1469.4,133.9 1476.1,135.8 C1482.8,137.8 1489.1,140.1 1495,142.9 C1500.9,145.7 1505.8,150.2 1509.6,156.6 C1513.4,162.9 1515.3,170.5 1515.3,179.4 C1515.3,188.3 1513.2,196.5 1509.1,203.3 C1505,210.1 1499.4,215.3 1492.5,218.8 C1485.6,222.3 1478.2,224.9 1470.5,226.6 C1462.7,228.3 1454.5,229.1 1445.8,229.1 C1419.7,229.1 1400,222.3 1386.5,208.6 L1414.8,177.2 C1423.9,188.2 1434.9,193.7 1447.7,193.7 C1461.8,193.7 1468.8,190.1 1468.8,182.8 C1468.8,178.5 1466.1,175.1 1460.7,172.9 C1455.3,170.6 1448.8,168.7 1441.1,167.2 C1433.4,165.6 1425.7,163.6 1418,161.1 C1410.2,158.6 1403.7,154.1 1398.3,147.4 C1392.9,140.8 1390.2,132.2 1390.2,121.6 C1390.2,105 1396.4,92.4 1408.8,83.7 C1421.2,75 1436.1,70.7 1453.5,70.7 C1478.6,70.8 1497.2,77.4 1509.6,90.6 L1509.6,90.6 Z" id="Path"></path>
            </g>
            <path d="M189.65,107.18525 C195.65,97.8852498 201.05,88.9852498 206.45,79.1852498 C208.85,74.8852498 207.45,69.3852498 203.35,66.6852498 C194.05,60.6852498 185.15,55.2852498 175.35,49.8852498 C171.05,47.4852498 165.55,48.8852498 162.85,52.9852498 C156.85,62.2852498 151.45,71.1852498 146.05,80.9852498 C143.65,85.2852498 145.05,90.7852498 149.15,93.4852498 C158.45,99.4852498 167.35,104.88525 177.15,110.28525 C181.45,112.68525 186.95,111.38525 189.65,107.18525 L189.65,107.18525 Z" id="Path" fill="#4A12B1"></path>
            <path d="M39.45,113.78525 C40.75,111.68525 41.95,109.68525 43.15,107.58525 C45.15,104.08525 44.05,99.5852498 40.65,97.4852498 C38.55,96.1852498 36.55,94.9852498 34.45,93.7852498 C30.95,91.7852498 26.45,92.8852498 24.35,96.2852498 C23.05,98.3852498 21.85,100.38525 20.65,102.48525 C18.65,105.98525 19.75,110.48525 23.15,112.58525 C25.25,113.88525 27.25,115.08525 29.35,116.28525 C32.85,118.38525 37.35,117.18525 39.45,113.78525 Z" id="Path" fill="#4A12B1"></path>
            <path d="M117.05,65.1852498 C120.45,61.4852498 123.55,57.8852498 126.75,53.9852498 C129.25,50.9852498 128.95,46.4852498 126.05,43.8852498 C122.35,40.4852498 118.75,37.3852498 114.85,34.1852498 C111.85,31.6852498 107.35,31.9852498 104.75,34.8852498 C101.35,38.5852498 98.25,42.1852498 95.05,46.0852498 C92.55,49.0852498 92.85,53.5852498 95.75,56.1852498 C99.45,59.5852498 103.05,62.6852498 106.95,65.8852498 C109.95,68.3852498 114.45,68.0852498 117.05,65.1852498 Z" id="Path" fill="#4A12B1"></path>
            <path d="M60.85,29.8852498 C62.15,27.8852498 63.35,25.8852498 64.45,23.7852498 C65.45,21.9852498 64.85,19.6852498 63.15,18.5852498 C61.15,17.2852498 59.15,16.0852498 57.05,14.9852498 C55.25,13.9852498 52.95,14.5852498 51.85,16.2852498 C50.55,18.2852498 49.35,20.2852498 48.25,22.3852498 C47.25,24.1852498 47.85,26.4852498 49.55,27.5852498 C51.55,28.8852498 53.55,30.0852498 55.65,31.1852498 C57.45,32.1852498 59.75,31.5852498 60.85,29.8852498 Z" id="Path" fill="#4A12B1"></path>
            <path d="M205.75,15.3852498 C207.05,13.3852498 208.25,11.3852498 209.35,9.28524976 C210.35,7.48524976 209.75,5.18524976 208.05,4.08524976 C206.05,2.78524976 204.05,1.58524976 201.95,0.485249756 C200.15,-0.514750244 197.85,0.0852497556 196.75,1.78524976 C195.45,3.78524976 194.25,5.78524976 193.15,7.88524976 C192.15,9.68524976 192.75,11.9852498 194.45,13.0852498 C196.45,14.3852498 198.45,15.5852498 200.55,16.6852498 C202.35,17.6852498 204.65,17.1852498 205.75,15.3852498 Z" id="Path" fill="#4A12B1"></path>
            <path d="M116.95,131.18525 C118.95,123.98525 120.65,117.18525 122.15,109.98525 C122.95,106.08525 120.65,102.28525 116.85,101.18525 C109.65,99.1852498 102.85,97.4852498 95.65,95.9852498 C91.75,95.1852498 87.95,97.4852498 86.85,101.28525 C84.85,108.48525 83.15,115.28525 81.65,122.48525 C80.85,126.38525 83.15,130.18525 86.95,131.28525 C94.15,133.28525 100.95,134.98525 108.15,136.48525 C112.05,137.38525 115.85,134.98525 116.95,131.18525 L116.95,131.18525 Z" id="Path" fill="#4A12B1"></path>
            <path d="M505.95,273.68525 C459.35,195.08525 393.25,128.98525 314.65,82.3852498 C281.25,62.5852498 239.45,62.5852498 206.05,82.3852498 C127.45,128.98525 61.35,195.08525 14.85,273.68525 C-4.95,307.08525 -4.95,348.88525 14.85,382.28525 C61.35,460.88525 127.45,526.88525 206.15,573.48525 C239.55,593.28525 281.35,593.28525 314.75,573.48525 C393.25,526.88525 459.35,460.88525 505.95,382.18525 C525.65,348.88525 525.65,307.08525 505.95,273.68525 Z" id="Path" fill="url(#linearGradient-1)"></path>
            <path d="M81.05,207.48525 C83.25,192.58525 84.75,178.98525 85.75,163.98525 C86.05,159.48525 82.85,155.58525 78.45,154.88525 C63.55,152.68525 49.95,151.18525 34.95,150.18525 C30.45,149.88525 26.55,153.08525 25.85,157.48525 C23.65,172.38525 22.15,185.98525 21.15,200.98525 C20.85,205.48525 24.05,209.38525 28.45,210.08525 C43.35,212.28525 56.95,213.78525 71.95,214.78525 C76.45,215.08525 80.45,211.88525 81.05,207.48525 Z" id="Path" fill="#4A12B1"></path>
            <g id="Group" transform="translate(142.750000, 184.785250)" fill="#FFFFFF">
                <path d="M116.8,154.7 C138.9,154.7 156.9,137 156.9,115.2 C156.9,93.4 138.9,75.7 116.8,75.7 C94.7,75.7 76.7,93.4 76.7,115.2 C76.7,137 94.6,154.7 116.8,154.7 Z M116.8,86.1 C133.1,86.1 146.2,99.1 146.2,115.1 C146.2,131.1 133,144.1 116.8,144.1 C100.6,144.1 87.4,131.1 87.4,115.1 C87.4,99.1 100.5,86.1 116.8,86.1 Z" id="Shape"></path>
                <path d="M116.8,230.4 C181.3,230.4 233.6,178.8 233.6,115.2 C233.6,51.6 181.3,0 116.8,0 C52.3,0 0,51.6 0,115.2 C0,178.8 52.3,230.4 116.8,230.4 Z M107.2,23.4 L126.4,23.4 C129.6,23.4 132.3,26 132.3,29.3 C132.3,32.6 129.7,35.2 126.4,35.2 L107.2,35.2 C104,35.2 101.3,32.6 101.3,29.3 C101.3,26 103.9,23.4 107.2,23.4 Z M116.8,56.7 C149.5,56.7 176.1,82.9 176.1,115.2 C176.1,147.5 149.5,173.7 116.8,173.7 C84.1,173.7 57.5,147.5 57.5,115.2 C57.5,82.9 84,56.7 116.8,56.7 Z" id="Shape"></path>
                <path d="M175,227.2 C168.1,230.7 160.8,233.6 153.2,235.8 L158.6,241.1 C167.1,249.3 164.3,256 152.6,256 L80.9,256 C69.1,256 66.4,249.3 74.9,241.1 L80.3,235.8 C72.7,233.6 65.5,230.7 58.5,227.2 L22.3,262.4 C13.9,270.6 16.6,277.3 28.3,277.3 L205.1,277.3 C216.9,277.3 219.6,270.6 211.1,262.4 L175,227.2 Z" id="Path"></path>
            </g>
        </g>
    </g>
</svg>