<?xml version="1.0" encoding="UTF-8"?>
<svg id="Ebene_2" data-name="Ebene 2" xmlns="http://www.w3.org/2000/svg" viewBox="0 0 6434.65 2961.25">
  <defs>
    <style>
      .cls-1, .cls-2, .cls-3, .cls-4, .cls-5 {
        fill: #fff;
      }

      .cls-2 {
        opacity: .2;
      }

      .cls-3 {
        opacity: .6;
      }

      .cls-4 {
        opacity: .8;
      }

      .cls-5 {
        opacity: .4;
      }
    </style>
  </defs>
  <ellipse class="cls-1" cx="3298.11" cy="1475.89" rx="1496" ry="1454.52"/>
  <path class="cls-1" d="m2077.46,1530.81c17.16-131.09,28.26-251.41,35.36-383.42,2.11-39.34-26.3-73.53-65.36-78.64-131.09-17.16-251.41-28.26-383.42-35.36-39.34-2.12-73.53,26.3-78.64,65.36-17.16,131.09-28.26,251.41-35.36,383.42-2.12,39.34,26.3,73.53,65.36,78.64,131.09,17.16,251.41,28.26,383.42,35.36,39.34,2.11,73.53-26.3,78.64-65.36Z"/>
  <path class="cls-4" d="m1406.1,1242.32c14.61-67.96,25.58-130.53,34.96-199.4,2.79-20.52-10.63-39.66-30.88-44.01-67.96-14.61-130.53-25.58-199.4-34.96-20.53-2.8-39.66,10.63-44.01,30.88-14.61,67.95-25.58,130.53-34.96,199.4-2.8,20.52,10.63,39.66,30.88,44.01,67.95,14.61,130.53,25.58,199.4,34.96,20.52,2.79,39.66-10.63,44.01-30.88Z"/>
  <path class="cls-3" d="m1051.62,1800.45c29.92-44.89,55.68-86.93,82.08-133.98,7.87-14.02,3.63-31.66-9.75-40.58-44.89-29.92-86.93-55.68-133.98-82.08-14.02-7.87-31.66-3.63-40.58,9.75-29.92,44.89-55.68,86.93-82.08,133.98-7.87,14.02-3.63,31.66,9.75,40.58,44.89,29.92,86.93,55.68,133.98,82.08,14.02,7.87,31.66,3.63,40.58-9.75Z"/>
  <path class="cls-2" d="m670.28,1629.26c-3.02-42.06-7.24-80.36-13.46-122.06-1.85-12.43-12.92-21.29-25.45-20.39-42.06,3.02-80.36,7.24-122.06,13.46-12.43,1.85-21.29,12.92-20.39,25.45,3.02,42.05,7.24,80.36,13.46,122.06,1.85,12.43,12.92,21.29,25.45,20.39,42.05-3.02,80.36-7.24,122.06-13.46,12.43-1.85,21.29-12.92,20.39-25.45Z"/>
  <path class="cls-2" d="m143.84,1506.97c14.21-26.85,26.26-51.86,38.38-79.72,3.61-8.3.24-17.94-7.76-22.18-26.85-14.21-51.86-26.26-79.72-38.38-8.3-3.61-17.94-.24-22.18,7.76-14.21,26.85-26.26,51.86-38.38,79.72-3.61,8.3-.24,17.94,7.76,22.18,26.85,14.21,51.86,26.26,79.72,38.38,8.3,3.61,17.94.24,22.18-7.76Z"/>
  <path class="cls-1" d="m5037.41,1771.03c-23.07-130.18-48.7-248.26-81.65-376.29-9.82-38.15-47.21-62.21-86-55.33-130.18,23.07-248.26,48.69-376.29,81.65-38.16,9.82-62.21,47.21-55.33,86,23.07,130.18,48.69,248.26,81.65,376.29,9.82,38.15,47.21,62.21,86,55.33,130.18-23.08,248.26-48.69,376.29-81.65,38.15-9.82,62.21-47.21,55.33-86Z"/>
  <path class="cls-1" d="m5347.42,1275.3c-13.38-75.51-28.24-143.99-47.36-218.26-5.7-22.13-27.38-36.08-49.88-32.09-75.51,13.38-143.99,28.24-218.26,47.36-22.13,5.69-36.08,27.38-32.09,49.88,13.38,75.5,28.24,143.99,47.36,218.26,5.69,22.13,27.38,36.08,49.88,32.09,75.5-13.38,143.99-28.24,218.26-47.36,22.13-5.7,36.08-27.38,32.09-49.88Z"/>
  <path class="cls-3" d="m5576.82,1678.74c-68.29-44.96-132.22-83.63-203.74-123.23-21.31-11.8-48.01-5.23-61.41,15.12-44.96,68.29-83.63,132.22-123.23,203.74-11.8,21.31-5.23,48.01,15.12,61.41,68.29,44.96,132.22,83.63,203.74,123.23,21.31,11.8,48.01,5.23,61.41-15.12,44.95-68.29,83.63-132.22,123.23-203.74,11.8-21.31,5.23-48.01-15.12-61.41Z"/>
  <path class="cls-5" d="m5950.22,1411.12c-22.55-41.04-44.58-77.74-70.19-116.94-7.63-11.68-22.91-15.5-35.14-8.78-41.04,22.55-77.74,44.57-116.94,70.19-11.68,7.63-15.5,22.91-8.78,35.14,22.55,41.04,44.57,77.74,70.19,116.94,7.63,11.68,22.91,15.5,35.14,8.78,41.04-22.55,77.74-44.57,116.94-70.19,11.68-7.63,15.5-22.91,8.78-35.14Z"/>
  <path class="cls-2" d="m6355.11,1514.88c14.71-28.18,27.15-54.43,39.67-83.65,3.73-8.71.14-18.78-8.26-23.16-28.18-14.71-54.43-27.15-83.65-39.67-8.71-3.73-18.78-.14-23.16,8.26-14.71,28.18-27.15,54.43-39.67,83.65-3.73,8.71-.14,18.78,8.26,23.16,28.18,14.71,54.43,27.15,83.65,39.67,8.71,3.73,18.78.14,23.16-8.26Z"/>
</svg>